<svg width="512" height="512" xmlns="http://www.w3.org/2000/svg">
<circle cx="256" cy="256" r="251.5" stroke="#fff" stroke-width="5"/>
<circle cx="256" cy="256" r="188.5" fill="#fff" stroke="#fff" stroke-width="5"/>
<path d="m125.67 122.92s28 33.083 89.25 34.333c61.251 1.25 95.917-37.917 130.92-33.333s63 43.333 77.75 50.167l-90.584 251.67s-1.833 1.334-11 4.667-11.333 4.333-11.333 4.333l40.25-122.92s-38.75-32.687-73.75-35c-35.001-2.313-50.917 23.75-110.08 13.75-59.167-10-97.584-47.083-97.584-47.083s-1.415-21.067 14.5-59.833c15.914-38.765 41.667-60.75 41.667-60.75z" fill="#f00"/>
<path d="m69.917 251.25s41.084 38.416 102.42 46.083c61.332 7.667 67.039-14.491 100.92-14.25 21.548 0.153 29.334 9.584 29.334 9.584l-53.506 149.67s-4.18-0.044-10.092-0.692c-5.911-0.648-9.541-1.294-9.541-1.294l27.555-82.851s-13.584-8.707-27.25-10.5c-13.668-1.793-21.042 3-46.5 2.5-24.073-0.473-71.25-12.75-93.333-45.75s-20-52.5-20-52.5z"/>
<path d="m256.88 17.756-2.2871 36.875 7.1895 0.44727 1.0234-16.482 13.301 0.82617-1.0215 16.48 7.1894 0.44531 2.2871-36.875-7.1894-0.44531-0.90039 14.525-13.303-0.82617 0.90039-14.523-7.1895-0.44727zm-20.459 0.28125c-0.71814-0.016574-1.4398 0.012831-2.1582 0.091797-10.764 1.1832-17.107 11.198-15.961 21.621 1.1136 10.131 9.7406 18.203 20.066 17.068 2.9711-0.32657 5.5482-1.5466 8.0879-3.1074l-0.9375-8.5234c-1.7454 2.5087-4.6366 4.4537-7.7051 4.791-6.6728 0.73345-11.445-5.0037-12.125-11.189-0.69597-6.3319 2.5542-13.097 9.4219-13.852 3.0685-0.33728 6.249 0.79198 8.5137 3.0078l-0.94336-8.5723c-1.9754-0.81806-4.1053-1.2862-6.2598-1.3359zm61.227 3.7695-7.0156 36.273 7.0723 1.3691 7.0156-36.275-7.0723-1.3672zm-100.65 3.0547c-0.9419 0.056022-1.8383 0.19299-2.6309 0.40625-6.0093 1.6169-9.1227 7.5795-7.5312 13.494 1.4896 5.5361 5.4732 6.9497 10.572 7.6074 3.0845 0.33711 6.7706 0.46162 7.7637 4.1523 0.73845 2.7444-0.36215 5.6287-3.2012 6.3926-2.981 0.80211-6.1512-0.98291-7.8359-3.4727l-3.3106 5.6094c3.5682 3.4545 7.9267 5.3261 12.848 4.002 7.2868-1.9607 10.374-8.2204 8.4512-15.365-3.2212-11.971-16.696-5.6568-18.312-11.666-0.62386-2.3185 1.0476-4.595 3.2715-5.1934 2.3185-0.62386 4.328 0.054539 6.1367 1.4961l1.9668-5.7051c-2.1194-1.3706-5.3618-1.9259-8.1875-1.7578zm128.26 2.8086c-5.1196-0.51556-9.7765 2.7036-11.371 7.8203-1.7057 5.4734 0.90087 8.8006 4.8555 12.086 2.4248 1.9361 5.4731 4.0151 4.3359 7.6641-0.84558 2.7133-3.3201 4.5603-6.127 3.6855-2.9472-0.91846-4.6697-4.124-4.7598-7.1289l-5.7988 2.9648c1.1642 4.828 3.8438 8.7436 8.709 10.26 7.2043 2.2451 13.162-1.3892 15.363-8.4531 3.6884-11.836-11.072-13.715-9.2207-19.656 0.71436-2.2923 3.3443-3.3219 5.543-2.6367 2.2923 0.71436 3.6269 2.3629 4.3828 4.5488l4.7148-3.7656c-1.4084-3.0565-5.2778-5.9568-8.4121-6.9336-0.74264-0.23144-1.4835-0.38143-2.2148-0.45508zm21.426 8.1797-2.6543 5.6816 6.748 3.1543-12.988 27.789 6.5254 3.0488 12.988-27.789 6.7461 3.1543 2.6562-5.6836-20.021-9.3555zm-186.52 1.3789-5.0898 2.3047 2.5293 40.49 6.918-3.1348-0.44727-8.3496 11.693-5.2969 5.8047 5.9238 7.0059-3.1758-28.414-28.762zm1.6113 11.156 9.7363 10.33-7.9902 3.6191-1.8359-13.908 0.08984-0.041015zm-22.934 0.40234-15.574 9.6562 19.469 31.4 6.1211-3.7949-8.5723-13.826 8.8711-5.5-3.3047-5.3301-8.8711 5.5-4.2871-6.9141 9.4551-5.8613-3.3066-5.3301zm236.18 1.2656-18.967 31.707 6.1816 3.6973 18.965-31.705-6.1797-3.6992zm19.846 13.896c-3.4755-0.1451-6.9309 1.4587-9.248 4.5059-3.4702 4.5635-2.1536 8.5804 0.44336 13.018 1.6191 2.647 3.7744 5.6413 1.4609 8.6836-1.7203 2.2622-4.6754 3.1526-7.0156 1.373-2.4572-1.8686-2.9831-5.4688-2.043-8.3242l-6.4629 0.81055c-0.55217 4.9356 0.63109 9.5306 4.6875 12.615 6.0066 4.5676 12.848 3.1806 17.326-2.709 7.5039-9.868-5.7297-16.668-1.9629-21.621 1.4533-1.9112 4.2762-1.9819 6.1094-0.58789 1.9112 1.4533 2.6033 3.4569 2.5684 5.7695l5.7168-1.9316c-0.28154-3.3535-2.9317-7.3976-5.5449-9.3848-1.8576-1.4125-3.9498-2.1297-6.0352-2.2168zm-281.53 1.7051-5.6973 4.4062 22.605 29.225 5.6973-4.4082-22.605-29.223zm-13.244 10.385-16.014 15.229 4.3223 4.5449 5.3965-5.1328 21.139 22.227 5.2207-4.9629-21.139-22.227 5.3965-5.1328-4.3223-4.5449zm317.42 11.973c-4.8337 0.21133-9.6714 2.3077-13.445 5.9473-7.3362 7.0751-8.4514 18.837-1.2402 26.314 2.0749 2.1515 4.6164 3.4445 7.4043 4.5l6.1719-5.9531c-3.0523 0.15263-6.359-0.94596-8.502-3.168-4.6601-4.832-3.0379-12.116 1.4414-16.436 4.5851-4.422 11.927-5.9868 16.723-1.0137 2.143 2.222 3.1931 5.4293 2.8242 8.5762l6.207-5.9863c-0.74721-2.7512-2.1552-5.3409-4.1621-7.4219-3.7587-3.8973-8.5882-5.5707-13.422-5.3594zm-341.65 11.854-4.3418 5.7461 19.822 14.977-0.058593 0.07813-32.33-0.04493-3.1309 4.1445 30.26 22.861 4.3418-5.748-20.018-15.121 0.060546-0.08008 32.33 0.04493 3.1309-4.1445-30.066-22.713zm369.2 11.176-30.58 20.734 4.043 5.9609 13.668-9.2676 7.4805 11.031-13.668 9.2676 4.043 5.9629 30.578-20.736-4.043-5.9609-12.045 8.168-7.4785-11.031 12.045-8.168-4.043-5.9609zm22.346 35.605-33.455 15.676 8.1094 17.305 5.6797-2.6602-5.0527-10.783 9.0508-4.2422 4.8652 10.383 5.6797-2.6602-4.8652-10.383 7.3652-3.4512 5.0527 10.781 5.6797-2.6621-8.1094-17.303zm-424.51 1.4883-2.4609 5.0156 27.705 29.637 3.3457-6.8184-5.6562-6.1582 5.6543-11.527 8.2461 0.88086 3.3887-6.9082-40.223-4.1211zm8.3418 7.5859 14.082 1.7774-3.8633 7.875-10.262-9.5645 0.042969-0.08789zm305.77 276.21-6.5098 3.082 10.633 22.453-0.08985 0.04297-28.633-15.014-4.6953 2.2246 16.232 34.275 6.5117-3.082-10.738-22.674 0.08789-0.04297 28.635 15.014 4.6934-2.2246-16.127-34.055zm-187.67 5.7383-28.967 28.404 6.8965 3.1816 6.0215-5.8027 11.658 5.377-0.68164 8.2656 6.9863 3.2226 3.1582-40.311-5.0723-2.3379zm-2.4004 10.818 0.08984 0.04102-1.4414 14.121-7.9648-3.6738 9.3164-10.488zm28.748 0.95899-8.791 35.885 6.9961 1.7129 3.9512-16.133 0.0957 0.02344 7.5176 18.943 8.9961 2.2031-9.6406-22.844 17.668-13.229-8.6133-2.1094-14.797 12.418-0.0957-0.02343 3.709-15.135-6.9961-1.7129zm109.2 2.2188c-1.278 0.03446-2.5942 0.19997-3.9375 0.50781-10.746 2.4627-15.932 12.297-13.48 22.996 2.4299 10.603 11.187 17.445 22.172 14.928 10.985-2.5175 15.889-12.491 13.459-23.094-2.1453-9.3613-9.2668-15.579-18.213-15.338zm-74.338 5.2695-0.44726 6.2578 7.4297 0.5293-2.1875 30.598 7.1836 0.51367 2.1875-30.598 7.4297 0.53125 0.44727-6.2559-22.043-1.5762zm41.189 0.72266-7.1894 0.43164 2.2148 36.879 7.1914-0.43164-2.2168-36.879zm33.219 1.1641c5.4731 0.01309 9.648 4.462 10.816 9.5606 1.2697 5.5404 0.0645 13.005-7.7207 14.789-7.7852 1.7841-12.121-4.4108-13.391-9.9512-1.3354-5.827 1.2361-12.6 7.875-14.121 0.82986-0.19018 1.638-0.27921 2.4199-0.27734z" fill="#fff"/>
</svg>