<?xml version="1.0" encoding="UTF-8" standalone="no"?>
<!-- Created with Inkscape (http://www.inkscape.org/) -->

<svg
   version="1.2"
   width="500.00003"
   height="500.00003"
   id="svg3058"
   sodipodi:docname="Antifalogo_alt2.svg"
   inkscape:version="1.4 (e7c3feb100, 2024-10-09)"
   xmlns:inkscape="http://www.inkscape.org/namespaces/inkscape"
   xmlns:sodipodi="http://sodipodi.sourceforge.net/DTD/sodipodi-0.dtd"
   xmlns="http://www.w3.org/2000/svg"
   xmlns:svg="http://www.w3.org/2000/svg"
   xmlns:rdf="http://www.w3.org/1999/02/22-rdf-syntax-ns#"
   xmlns:cc="http://creativecommons.org/ns#"
   xmlns:dc="http://purl.org/dc/elements/1.1/">
  <sodipodi:namedview
     id="namedview1"
     pagecolor="#505050"
     bordercolor="#eeeeee"
     borderopacity="1"
     inkscape:showpageshadow="0"
     inkscape:pageopacity="0"
     inkscape:pagecheckerboard="0"
     inkscape:deskcolor="#505050"
     inkscape:zoom="1.1659999"
     inkscape:cx="301.45799"
     inkscape:cy="399.22815"
     inkscape:window-width="1536"
     inkscape:window-height="792"
     inkscape:window-x="0"
     inkscape:window-y="0"
     inkscape:window-maximized="1"
     inkscape:current-layer="svg3058" />
  <defs
     id="defs3060" />
  <metadata
     id="metadata3063">
    <rdf:RDF>
      <cc:Work
         rdf:about="">
        <dc:format>image/svg+xml</dc:format>
        <dc:type
           rdf:resource="http://purl.org/dc/dcmitype/StillImage" />
        <dc:title />
      </cc:Work>
    </rdf:RDF>
  </metadata>
  <g
     id="g2"
     transform="matrix(0.99048772,0,0,0.99048772,5,3.993138)"
     inkscape:label="g2"
     style="display:inline">
    <path
       d="M 224.5,73.343749 C 185.93211,72.704545 141.70393,105.7726 130.46875,128.625 l -5.4375,-24.5 -19.875,20.71875 L 169.5,423.9375 198.78125,436.53125 166.5625,284.8125 c 0,0 6.19954,-14.41025 19.40625,-23.96875 5.62224,-4.06922 14.3269,-10.08727 23.125,-11.75 2.50225,-0.4729 4.85294,-0.6949 7.0625,-0.6875 0.73653,0.001 1.44735,0.0428 2.15625,0.0937 8.50681,0.6097 14.87548,4.60769 19.59375,9.78125 6.29103,6.89819 10.58216,15.42046 16.875,21.9375 5.44595,5.63992 12.86595,7.87521 21.34375,7.9375 9.58517,0.07 15.35903,-2.01702 21.9375,-5.25 6.54375,-3.2159 12.60627,-6.33332 20.84375,-6.25 11.42448,0.11525 17.91533,3.60927 24.4375,7.4375 9.68122,5.68235 21.99875,11.22446 38.96875,10.5625 1.58366,-0.0616 3.05123,-0.16487 4.4375,-0.25 1.38624,-0.0849 2.67145,-0.1635 3.90625,-0.28125 7.40871,-0.70508 12.5447,-2.10417 21.09375,-5.65625 7.9283,-3.2942 14.9504,-7.46082 19.4375,-15.40625 0.95057,-7.54864 1.4375,-15.256 1.4375,-23.0625 0,-19.67496 -3.12986,-38.60699 -8.88977,-56.36125 -0.24837,-0.76558 -1.08497,-2.47461 -1.58172,-3.03319 -0.54518,-0.61302 -1.70693,-1.57723 -2.82396,-1.87654 -2.95016,-0.79049 -6.25871,-1.46125 -8.6108,-3.82277 -3.61251,-3.62722 -5.20695,-12.07889 -13.65625,-21.625 -12.67838,-14.32427 -47.55007,-1.68247 -58.625,-0.65625 -18.27134,1.69293 -28.27122,-7.61149 -34.53125,-28.1875 C 286.24919,76.40056 259.92553,75.904337 228.25,73.531249 227.01904,73.438989 225.74413,73.364 224.5,73.343749 Z M 216.3125,256.4375 c -1.69619,0.0485 -3.6007,0.23063 -5.6875,0.625 -4.0135,0.75852 -9.18778,3.45215 -13.78125,6.28125 l 39.6875,181.875 L 264,456.84375 245.1875,369.5 c 3.55452,-5.51167 11.73624,-6.42578 18.40625,-10 5.58515,-2.99296 10.66597,-9.25545 20.9375,-9.40625 27.29069,-0.40057 26.35318,27.2947 50.3125,29.40625 21.87297,1.92766 42.22783,-25.76803 54.9375,-11.96875 18.7056,-22.22714 32.20463,-48.97617 38.625,-78.375 -3.9182,2.28688 -8.16742,4.50603 -12.5625,6.40625 -0.61676,0.26676 -1.22183,0.59099 -1.84375,0.84375 -10.90469,4.43175 -18.31955,5.8333 -31.40625,6.34375 -18.91087,0.73758 -33.05933,-5.60153 -43.375,-11.65625 -6.45365,-3.78796 -10.45734,-6.21188 -20.40625,-6.3125 -6.22071,-0.0628 -10.55714,2.16312 -17.15625,5.40625 -7.09751,3.48804 -14.75156,6.14229 -25.625,6.0625 -9.92069,-0.073 -19.78477,-2.86928 -27.0625,-10.40625 -7.37892,-7.64177 -11.84419,-16.43741 -17.03125,-22.125 -4.21447,-4.62121 -8.27468,-7.49111 -15.625,-7.28125 z"
       id="path4056-4"
       style="fill:#d90313;fill-opacity:1;stroke:none"
       inkscape:transform-center-x="-1.0563554"
       inkscape:transform-center-y="-15.845045"
       sodipodi:nodetypes="cccccccsscssssssssscscssssssssscssccccsssccssssssssss" />
    <path
       d="M 250.00001,0 C 111.93513,0 0,111.93513 0,250.00001 c 0,138.06488 111.93513,250.00001 250.00001,250.00001 138.06488,0 250.00001,-111.93513 250.00001,-250.00001 C 500.00002,111.93513 388.06489,0 250.00001,0 Z m 0,62.546059 c 103.53067,0 187.45395,83.923281 187.45395,187.453951 0,103.53067 -83.92328,187.45395 -187.45395,187.45395 -103.53067,0 -187.453951,-83.92328 -187.453951,-187.45395 0,-103.53067 83.923281,-187.453951 187.453951,-187.453951 z"
       id="path5994-0"
       style="color:#000000;display:inline;overflow:visible;visibility:visible;fill:#000000;fill-opacity:1;fill-rule:nonzero;stroke:none;stroke-width:0;marker:none;enable-background:accumulate" />
    <path
       d="m 56.865514,203.42457 -45.754101,11.49569 -1.42528,11.66107 41.638404,22.17728 1.289158,-10.54737 -7.066512,-3.6563 2.290057,-18.73632 7.739116,-1.84668 z m -17.529507,13.9481 -1.665496,13.62642 -17.969088,-9.11127 z"
       id="path3199"
       style="font-style:normal;font-weight:normal;font-size:40px;line-height:125%;font-family:'Proxima Nova Rg';-inkscape-font-specification:'Proxima Nova Rg Bold';text-align:center;letter-spacing:0px;word-spacing:0px;text-anchor:middle;fill:#ffffff;fill-opacity:1;stroke:none" />
    <path
       d="m 71.131237,164.2742 -41.394449,-14.97952 -3.189044,8.81261 26.003409,9.40993 -32.942949,9.76681 -3.278877,9.06085 41.394449,14.97953 3.189045,-8.81261 -26.99638,-9.76926 34.138042,-9.96603 z"
       id="path3201"
       style="font-style:normal;font-weight:normal;font-size:40px;line-height:125%;font-family:'Proxima Nova Rg';-inkscape-font-specification:'Proxima Nova Rg Bold';text-align:center;letter-spacing:0px;word-spacing:0px;text-anchor:middle;fill:#ffffff;fill-opacity:1;stroke:none" />
    <path
       d="m 84.91744,141.74391 -30.37383,-18.89533 6.763273,-10.87181 -7.005035,-4.35778 -18.546707,29.81343 7.005034,4.35778 6.798136,-10.92786 30.373829,18.89533 z"
       id="path3203"
       style="font-style:normal;font-weight:normal;font-size:40px;line-height:125%;font-family:'Proxima Nova Rg';-inkscape-font-specification:'Proxima Nova Rg Bold';text-align:center;letter-spacing:0px;word-spacing:0px;text-anchor:middle;fill:#ffffff;fill-opacity:1;stroke:none" />
    <path
       d="M 100.68391,120.85306 66.699553,92.871817 60.742527,100.10687 94.726886,128.08811 Z"
       id="path3205"
       style="font-style:normal;font-weight:normal;font-size:40px;line-height:125%;font-family:'Proxima Nova Rg';-inkscape-font-specification:'Proxima Nova Rg Bold';text-align:center;letter-spacing:0px;word-spacing:0px;text-anchor:middle;fill:#ffffff;fill-opacity:1;stroke:none" />
    <path
       d="M 111.65775,109.14158 99.190533,95.770293 114.78233,81.232706 109.15633,75.198731 93.564532,89.736317 87.263411,82.978265 103.19311,68.125622 97.567105,62.091647 74.782813,83.335427 104.80316,115.53272 Z"
       id="path3207"
       style="font-style:normal;font-weight:normal;font-size:40px;line-height:125%;font-family:'Proxima Nova Rg';-inkscape-font-specification:'Proxima Nova Rg Bold';text-align:center;letter-spacing:0px;word-spacing:0px;text-anchor:middle;fill:#ffffff;fill-opacity:1;stroke:none" />
    <path
       d="m 166.13082,69.892106 -37.50451,-28.618183 -10.00787,6.152592 8.60536,46.384656 9.05207,-5.564985 -1.54445,-7.805049 16.08007,-9.885625 6.26727,4.901579 z m -21.83271,-5.016556 -11.69459,7.189545 -4.0729,-19.731065 z"
       id="path3209"
       style="font-style:normal;font-weight:normal;font-size:40px;line-height:125%;font-family:'Proxima Nova Rg';-inkscape-font-specification:'Proxima Nova Rg Bold';text-align:center;letter-spacing:0px;word-spacing:0px;text-anchor:middle;fill:#ffffff;fill-opacity:1;stroke:none" />
    <path
       d="m 183.47699,65.024781 c 5.52313,-2.084456 9.21706,-4.850539 11.0818,-8.298257 1.86468,-3.447689 2.09713,-7.104312 0.69733,-10.969878 -1.48993,-3.739445 -3.73296,-6.07558 -6.72911,-7.008413 -2.99619,-0.932768 -6.17618,-1.211557 -9.53996,-0.836366 -3.36382,0.375256 -6.34212,0.65517 -8.9349,0.839742 -2.5928,0.184636 -4.23077,-0.475392 -4.91391,-1.980088 -0.44346,-1.260779 -0.29504,-2.43704 0.44524,-3.528788 0.74028,-1.091672 2.04396,-1.983301 3.91105,-2.674889 2.13723,-0.777338 4.38565,-1.173844 6.74526,-1.18952 2.35958,-0.01559 4.67085,0.44231 6.9338,1.373709 l 2.52873,-8.350653 c -2.73867,-1.15582 -5.63656,-1.732331 -8.69367,-1.729535 -3.05713,0.0029 -6.23404,0.597174 -9.53075,1.782834 -4.88431,1.86997 -8.27295,4.493684 -10.16593,7.87115 -1.89297,3.377546 -2.22318,6.844339 -0.99062,10.400388 1.49951,3.765087 3.74402,6.095204 6.73355,6.990359 2.98954,0.895202 6.16438,1.137474 9.52454,0.726816 3.36015,-0.410611 6.34591,-0.692122 8.95729,-0.844533 2.61135,-0.152364 4.28862,0.606404 5.03181,2.276307 0.45791,1.248299 0.25639,2.528517 -0.60456,3.840658 -0.86099,1.312177 -2.50704,2.429729 -4.93817,3.352661 -2.88099,0.988868 -5.62623,1.345448 -8.23571,1.06974 -2.60949,-0.275682 -4.93087,-0.931667 -6.96413,-1.967958 l -2.3546,8.638633 c 2.66176,1.283035 5.66036,1.99276 8.99581,2.129177 3.33543,0.136426 7.00536,-0.501339 11.00981,-1.913296 z"
       id="path3211"
       style="font-style:normal;font-weight:normal;font-size:40px;line-height:125%;font-family:'Proxima Nova Rg';-inkscape-font-specification:'Proxima Nova Rg Bold';text-align:center;letter-spacing:0px;word-spacing:0px;text-anchor:middle;fill:#ffffff;fill-opacity:1;stroke:none" />
    <path
       d="m 225.28994,54.969719 c 4.72292,-0.783759 8.40062,-2.439199 11.03311,-4.966325 2.63241,-2.52711 4.49953,-5.30751 5.60137,-8.341209 L 233.40313,38.9449 c -0.68943,1.942884 -1.84782,3.636009 -3.47517,5.079378 -1.6274,1.443398 -3.56504,2.347718 -5.81293,2.712964 -4.07074,0.497632 -7.54742,-0.38955 -10.43003,-2.661548 -2.88264,-2.271971 -4.66025,-5.501671 -5.33286,-9.689109 -0.52561,-4.208373 0.27759,-7.806395 2.40959,-10.794078 2.13199,-2.987615 5.22169,-4.811921 9.26912,-5.472923 2.26032,-0.278102 4.37358,0.04809 6.33977,0.978583 1.96614,0.930569 3.5519,2.232059 4.75731,3.904476 l 7.41165,-5.057832 c -1.91017,-2.630183 -4.48013,-4.774563 -7.70991,-6.433148 -3.22983,-1.6584916 -7.22107,-2.2000097 -11.97373,-1.6245557 -6.70077,1.0563527 -11.92298,3.9183457 -15.66662,8.5859887 -3.74365,4.66772 -5.20245,10.42601 -4.3764,17.274885 1.11872,6.777983 4.1289,11.890146 9.03056,15.336502 4.90164,3.44637 10.71712,4.741448 17.44646,3.885236 z"
       id="path3213"
       style="font-style:normal;font-weight:normal;font-size:40px;line-height:125%;font-family:'Proxima Nova Rg';-inkscape-font-specification:'Proxima Nova Rg Bold';text-align:center;letter-spacing:0px;word-spacing:0px;text-anchor:middle;fill:#ffffff;fill-opacity:1;stroke:none" />
    <path
       d="m 286.61196,55.055094 3.76479,-43.860152 -9.4033,-0.807144 -1.47882,17.228425 -20.71357,-1.777975 1.47883,-17.2284255 -9.33755,-0.8015 -3.76479,43.8601515 9.33754,0.8015 1.58607,-18.477815 20.71357,1.777975 -1.58607,18.477815 z"
       id="path3215"
       style="font-style:normal;font-weight:normal;font-size:40px;line-height:125%;font-family:'Proxima Nova Rg';-inkscape-font-specification:'Proxima Nova Rg Bold';text-align:center;letter-spacing:0px;word-spacing:0px;text-anchor:middle;fill:#ffffff;fill-opacity:1;stroke:none" />
    <path
       d="M 302.07862,59.57922 312.66504,16.849672 303.5682,14.595891 292.98177,57.325438 Z"
       id="path3217"
       style="font-style:normal;font-weight:normal;font-size:40px;line-height:125%;font-family:'Proxima Nova Rg';-inkscape-font-specification:'Proxima Nova Rg Bold';text-align:center;letter-spacing:0px;word-spacing:0px;text-anchor:middle;fill:#ffffff;fill-opacity:1;stroke:none" />
    <path
       d="m 322.9839,67.475339 c 5.51561,2.104292 10.11467,2.485058 13.7972,1.1423 3.68246,-1.342777 6.28218,-3.924711 7.79916,-7.74581 1.36586,-3.786523 1.23725,-7.022599 -0.38583,-9.708239 -1.62317,-2.685624 -3.8177,-5.003822 -6.58362,-6.954601 -2.76598,-1.95075 -5.18024,-3.717089 -7.24279,-5.299023 -2.06259,-1.581894 -2.85037,-3.162394 -2.36334,-4.741504 0.50458,-1.237587 1.39595,-2.01929 2.67414,-2.345112 1.27814,-0.325767 2.84515,-0.128087 4.70103,0.593038 2.11491,0.836174 4.06037,2.031071 5.83639,3.584696 1.77595,1.553671 3.20162,3.42959 4.27703,5.627761 l 7.43196,-4.570986 c -1.2825,-2.681686 -3.06844,-5.035515 -5.35783,-7.061496 -2.28948,-2.025923 -5.0609,-3.688795 -8.31429,-4.988623 -4.89531,-1.840991 -9.17148,-2.125758 -12.82854,-0.854303 -3.65709,1.271526 -6.20403,3.646561 -7.64082,7.125112 -1.37571,3.812064 -1.242,7.04462 0.40113,9.697679 1.64311,2.653095 3.85802,4.940557 6.64475,6.862393 2.78669,1.921859 5.2076,3.691955 7.26272,5.310291 2.05507,1.61835 2.80675,3.298805 2.25505,5.04137 -0.48547,1.237838 -1.48556,2.062098 -3.00024,2.472783 -1.51475,0.410683 -3.48782,0.154926 -5.91922,-0.76727 -2.81178,-1.171303 -5.1025,-2.725663 -6.87219,-4.663082 -1.76971,-1.937412 -3.07155,-3.968257 -3.90551,-6.092541 l -7.4927,4.901989 c 1.14055,2.725854 2.91348,5.246177 5.31879,7.560977 2.4053,2.314796 5.57448,4.272194 9.50757,5.872201 z"
       id="path3219"
       style="font-style:normal;font-weight:normal;font-size:40px;line-height:125%;font-family:'Proxima Nova Rg';-inkscape-font-specification:'Proxima Nova Rg Bold';text-align:center;letter-spacing:0px;word-spacing:0px;text-anchor:middle;fill:#ffffff;fill-opacity:1;stroke:none" />
    <path
       d="m 359.91229,86.015613 19.19877,-30.182942 10.80349,6.871886 4.42776,-6.96101 -29.62606,-18.844556 -4.42776,6.961011 10.85917,6.907309 -19.19877,30.182943 z"
       id="path3221"
       style="font-style:normal;font-weight:normal;font-size:40px;line-height:125%;font-family:'Proxima Nova Rg';-inkscape-font-specification:'Proxima Nova Rg Bold';text-align:center;letter-spacing:0px;word-spacing:0px;text-anchor:middle;fill:#ffffff;fill-opacity:1;stroke:none" />
    <path
       d="m 380.64401,101.99068 28.32176,-33.701115 -7.17475,-6.029519 -28.32176,33.701111 z"
       id="path3223"
       style="font-style:normal;font-weight:normal;font-size:40px;line-height:125%;font-family:'Proxima Nova Rg';-inkscape-font-specification:'Proxima Nova Rg Bold';text-align:center;letter-spacing:0px;word-spacing:0px;text-anchor:middle;fill:#ffffff;fill-opacity:1;stroke:none" />
    <path
       d="m 395.9269,118.29441 c 4.02334,4.32003 7.98368,6.68901 11.88103,7.10693 3.89731,0.41788 7.36892,-0.75378 10.41486,-3.51499 2.89506,-2.79678 4.20603,-5.75821 3.93292,-8.8843 -0.27319,-3.12612 -1.22121,-6.17428 -2.84406,-9.1445 -1.62292,-2.97022 -3.01142,-5.619881 -4.16549,-7.948984 -1.15414,-2.329089 -1.1646,-4.095007 -0.0314,-5.29776 0.99842,-0.888466 2.14309,-1.197226 3.43403,-0.926282 1.29086,0.270971 2.6103,1.139123 3.9583,2.604459 1.52979,1.682778 2.74937,3.612862 3.65874,5.790258 0.90928,2.177409 1.36211,4.489669 1.35849,6.936809 l 8.68584,-0.82709 c 0.0309,-2.97242 -0.53469,-5.872463 -1.69666,-8.700139 -1.16207,-2.827661 -2.91677,-5.541879 -5.2641,-8.142662 -3.58261,-3.810274 -7.29544,-5.950757 -11.1385,-6.421456 -3.84313,-0.470654 -7.17617,0.538556 -9.99914,3.027635 -2.91515,2.815368 -4.21999,5.77589 -3.91453,8.881576 0.30543,3.105706 1.28529,6.135261 2.93958,9.088676 1.65424,2.95342 3.04704,5.60937 4.17841,7.96788 1.13132,2.3585 1.06532,4.19822 -0.19799,5.51919 -0.98139,0.89711 -2.2424,1.19616 -3.78303,0.89714 -1.54067,-0.29904 -3.19899,-1.39831 -4.97496,-3.29781 -2.00759,-2.29076 -3.37864,-4.69569 -4.11315,-7.2148 -0.73454,-2.51911 -1.00792,-4.91585 -0.82014,-7.19023 l -8.88627,1.097419 c -0.17774,2.949501 0.30275,5.993261 1.44146,9.131271 1.1387,3.13801 3.12061,6.29193 5.94574,9.46176 z"
       id="path3225"
       style="font-style:normal;font-weight:normal;font-size:40px;line-height:125%;font-family:'Proxima Nova Rg';-inkscape-font-specification:'Proxima Nova Rg Bold';text-align:center;letter-spacing:0px;word-spacing:0px;text-anchor:middle;fill:#ffffff;fill-opacity:1;stroke:none" />
    <path
       d="m 421.08896,153.16993 c 2.51643,4.07283 5.443,6.84792 8.77972,8.32528 3.33668,1.47731 6.61749,2.15044 9.84242,2.01939 l -0.71752,-8.91522 c -2.05921,0.0989 -4.06517,-0.33077 -6.0179,-1.28912 -1.95277,-0.95839 -3.5244,-2.4083 -4.7149,-4.34972 -2.00433,-3.57788 -2.502,-7.13129 -1.49301,-10.66022 1.00896,-3.52894 3.32318,-6.39866 6.94268,-8.60914 3.69462,-2.08242 7.32845,-2.70383 10.90151,-1.86422 3.57299,0.83961 6.43281,3.00659 8.57946,6.50094 1.11458,1.98598 1.61423,4.06507 1.49896,6.23726 -0.11536,2.17218 -0.7182,4.13308 -1.8085,5.88271 l 7.49091,4.93967 c 1.70923,-2.76498 2.71871,-5.95622 3.02845,-9.57373 0.30963,-3.61754 -0.70303,-7.51597 -3.03799,-11.6953 -3.51878,-5.79952 -8.14754,-9.54613 -13.88628,-11.23982 -5.73882,-1.69368 -11.62017,-0.85958 -17.64407,2.50227 -5.84731,3.60577 -9.43589,8.32991 -10.76576,14.17243 -1.32988,5.84251 -0.32261,11.71469 3.02182,17.61654 z"
       id="path3227"
       style="font-style:normal;font-weight:normal;font-size:40px;line-height:125%;font-family:'Proxima Nova Rg';-inkscape-font-specification:'Proxima Nova Rg Bold';text-align:center;letter-spacing:0px;word-spacing:0px;text-anchor:middle;fill:#ffffff;fill-opacity:1;stroke:none" />
    <path
       d="m 444.26587,209.94341 42.01136,-13.1504 -2.81935,-9.00693 -16.50221,5.16552 -6.21046,-19.84044 16.50221,-5.16553 -2.79964,-8.94394 -42.01135,13.1504 2.79964,8.94394 17.69893,-5.54012 6.21046,19.84044 -17.69894,5.54013 z"
       id="path3229"
       style="font-style:normal;font-weight:normal;font-size:40px;line-height:125%;font-family:'Proxima Nova Rg';-inkscape-font-specification:'Proxima Nova Rg Bold';text-align:center;letter-spacing:0px;word-spacing:0px;text-anchor:middle;fill:#ffffff;fill-opacity:1;stroke:none" />
    <path
       d="m 448.02416,247.65234 8.21303,-0.77907 -2.05676,-21.68239 9.98704,-0.94735 2.01313,21.22245 8.21302,-0.77907 -2.01313,-21.22246 9.19859,-0.87256 2.05676,21.68238 8.21302,-0.77907 -2.94178,-31.01238 -43.82471,4.15714 z"
       id="path3231"
       style="font-style:normal;font-weight:normal;font-size:40px;line-height:125%;font-family:'Proxima Nova Rg';-inkscape-font-specification:'Proxima Nova Rg Bold';text-align:center;letter-spacing:0px;word-spacing:0px;text-anchor:middle;fill:#ffffff;fill-opacity:1;stroke:none" />
    <path
       d="m 113.14395,449.83225 15.14516,-44.67899 -9.026,-7.51953 -41.209016,22.96533 8.16397,6.80136 6.90336,-3.95572 14.502456,12.08193 -2.6439,7.50426 z m -2.21711,-22.29164 -10.54724,-8.78686 17.39779,-10.15974 z"
       id="path3234"
       style="font-style:normal;font-variant:normal;font-weight:normal;font-stretch:normal;font-size:40px;line-height:125%;font-family:'Proxima Nova Rg';-inkscape-font-specification:'Proxima Nova Rg Bold';text-align:center;letter-spacing:0px;word-spacing:0px;text-anchor:middle;fill:#ffffff;fill-opacity:1;stroke:none" />
    <path
       d="m 217.0621,488.9069 5.58798,-35.33239 12.64665,2.00013 1.28874,-8.14861 -34.6805,-5.48488 -1.28874,8.14861 12.71184,2.01044 -5.58798,35.33238 z"
       id="path3238"
       style="font-style:normal;font-variant:normal;font-weight:normal;font-stretch:normal;font-size:40px;line-height:125%;font-family:'Proxima Nova Rg';-inkscape-font-specification:'Proxima Nova Rg Bold';text-align:center;letter-spacing:0px;word-spacing:0px;text-anchor:middle;fill:#ffffff;fill-opacity:1;stroke:none" />
    <path
       d="m 268.1347,490.48765 -2.47343,-43.95189 -9.35707,0.52657 2.47342,43.9519 z"
       id="path3240"
       style="font-style:normal;font-variant:normal;font-weight:normal;font-stretch:normal;font-size:40px;line-height:125%;font-family:'Proxima Nova Rg';-inkscape-font-specification:'Proxima Nova Rg Bold';text-align:center;letter-spacing:0px;word-spacing:0px;text-anchor:middle;fill:#ffffff;fill-opacity:1;stroke:none" />
    <path
       d="m 319.96394,481.57254 c 6.43784,-2.06794 11.07265,-5.69867 13.90444,-10.89221 2.83172,-5.19351 3.33329,-11.041 1.50471,-17.54251 -2.0735,-6.42755 -5.72629,-11.02123 -10.95838,-13.78106 -5.23215,-2.75974 -11.10171,-3.22018 -17.60868,-1.38133 -6.46815,2.07713 -11.12139,5.71343 -13.95973,10.9089 -2.83834,5.19554 -3.34254,11.04383 -1.51261,17.54489 2.07215,6.428 5.72757,11.02088 10.96628,13.77868 5.2387,2.7578 11.12668,3.21268 17.66397,1.36464 z m -2.40275,-7.96121 c -3.98842,1.10894 -7.50596,0.72283 -10.55264,-1.15833 -3.0467,-1.88114 -5.19669,-4.81711 -6.44996,-8.80792 -1.17212,-4.04542 -1.00774,-7.6885 0.49315,-10.92925 1.50087,-3.24068 4.21988,-5.50041 8.15704,-6.77919 3.95691,-1.1037 7.45364,-0.71993 10.4902,1.15132 3.03651,1.87134 5.18624,4.816 6.44921,8.834 1.16243,4.01823 0.99829,7.65262 -0.4924,10.90317 -1.49075,3.25059 -4.18895,5.51266 -8.0946,6.7862 z"
       id="path3242"
       style="font-style:normal;font-variant:normal;font-weight:normal;font-stretch:normal;font-size:40px;line-height:125%;font-family:'Proxima Nova Rg';-inkscape-font-specification:'Proxima Nova Rg Bold';text-align:center;letter-spacing:0px;word-spacing:0px;text-anchor:middle;fill:#ffffff;fill-opacity:1;stroke:none" />
    <path
       d="M 401.13859,438.88914 376.52763,402.39 l -7.77044,5.23951 15.46027,22.92825 -32.36916,-11.52676 -7.98932,5.3871 24.61097,36.49914 7.77043,-5.23951 -16.05063,-23.80379 33.45202,12.07022 z"
       id="path3244"
       style="font-style:normal;font-variant:normal;font-weight:normal;font-stretch:normal;font-size:40px;line-height:125%;font-family:'Proxima Nova Rg';-inkscape-font-specification:'Proxima Nova Rg Bold';text-align:center;letter-spacing:0px;word-spacing:0px;text-anchor:middle;fill:#ffffff;fill-opacity:1;stroke:none" />
    <path
       d="m 170.64867,476.99746 -5.28537,-27.95923 19.29053,-9.3011 -3.92561,-8.0209 -25.08542,12.30715 7.53228,-16.91317 -8.56125,-3.81275 -17.90919,40.21377 8.56125,3.81275 4.88057,-10.95897 6.58981,-3.58294 4.15868,23.21273 z"
       id="path3236-1"
       style="font-style:normal;font-variant:normal;font-weight:normal;font-stretch:normal;font-size:40px;line-height:125%;font-family:'Proxima Nova Rg';-inkscape-font-specification:'Proxima Nova Rg Bold';text-align:center;letter-spacing:0px;word-spacing:0px;text-anchor:middle;fill:#ffffff;fill-opacity:1;stroke:none" />
    <path
       style="fill:#000000;stroke:#808080;stroke-width:0.176056"
       d="m 732.70241,1101.8104 c -0.26628,-0.04 -0.48373,-0.1275 -0.48322,-0.1936 5e-4,-0.066 -0.55101,-2.6556 -1.2256,-5.7542 -3.52083,-16.1723 -6.34575,-29.1791 -6.34575,-29.2177 0,-0.1992 2.65691,-1.1971 3.38602,-1.2718 2.01072,-0.206 2.96415,0.4488 5.17329,3.5529 1.99435,2.8023 3.41796,3.8803 5.69415,4.312 2.25807,0.4283 4.4033,0.076 7.20317,-1.1824 1.78643,-0.8029 1.94232,-0.8409 3.45534,-0.8409 h 1.5845 l 2.72888,1.3636 c 3.3796,1.6888 4.81335,2.0671 7.8345,2.0669 3.41877,-10e-5 5.28544,-0.4191 8.23608,-1.8488 1.14784,-0.5561 1.52426,-0.6749 1.46174,-0.4611 -0.0463,0.1583 -0.20921,0.7824 -0.36201,1.3868 -0.9727,3.8477 -2.99726,8.0873 -5.57051,11.6651 -1.86168,2.5885 -1.62497,2.3848 -2.2416,1.929 -0.93451,-0.691 -2.04392,-0.4532 -5.21265,1.1171 -1.49145,0.7392 -3.07339,1.435 -3.51543,1.5463 -1.06924,0.2692 -2.83985,0.1337 -3.71111,-0.284 -0.39277,-0.1883 -1.63858,-1.29 -2.8169,-2.4911 -2.57096,-2.6207 -3.15755,-2.9433 -5.36972,-2.9532 -1.59897,-0.01 -2.12543,0.1775 -3.82517,1.3418 -0.40931,0.2803 -1.40775,0.7875 -2.21876,1.127 -1.86092,0.779 -2.30244,1.1661 -2.1724,1.9048 0.053,0.3011 0.6954,3.3116 1.4275,6.6899 0.7321,3.3783 1.33109,6.2502 1.33109,6.382 0,0.1896 -0.41403,0.2342 -1.98064,0.2134 -1.08935,-0.014 -2.1985,-0.059 -2.46479,-0.1 z"
       id="path6"
       transform="matrix(4.9217282,0,0,4.9217282,-3369.1344,-4986.3351)" />
  </g>
</svg>
