<?xml version="1.0" encoding="UTF-8" standalone="no"?>
<!-- Created with Inkscape (http://www.inkscape.org/) -->

<svg
   width="512"
   height="512"
   viewBox="0 0 512 512"
   version="1.1"
   id="svg1"
   xml:space="preserve"
   inkscape:version="1.4 (e7c3feb100, 2024-10-09)"
   sodipodi:docname="wahllokal_pin.svg"
   xmlns:inkscape="http://www.inkscape.org/namespaces/inkscape"
   xmlns:sodipodi="http://sodipodi.sourceforge.net/DTD/sodipodi-0.dtd"
   xmlns="http://www.w3.org/2000/svg"
   xmlns:svg="http://www.w3.org/2000/svg"><sodipodi:namedview
     id="namedview1"
     pagecolor="#505050"
     bordercolor="#eeeeee"
     borderopacity="1"
     inkscape:showpageshadow="0"
     inkscape:pageopacity="0"
     inkscape:pagecheckerboard="0"
     inkscape:deskcolor="#505050"
     inkscape:document-units="px"
     inkscape:zoom="0.20129065"
     inkscape:cx="255.84894"
     inkscape:cy="255.84894"
     inkscape:window-width="1536"
     inkscape:window-height="792"
     inkscape:window-x="0"
     inkscape:window-y="0"
     inkscape:window-maximized="1"
     inkscape:current-layer="layer1" /><defs
     id="defs1" /><g
     inkscape:label="Layer 1"
     inkscape:groupmode="layer"
     id="layer1"><path
       style="fill:#000000;stroke-width:0.290212"
       d="m 92.98587,467.78648 c -1.32479,-0.39765 -2.83434,-1.72705 -3.41633,-3.00864 -0.52742,-1.16142 -0.54264,-5.14401 -0.54884,-143.63034 -0.006,-130.88331 0.0319,-142.51114 0.46499,-143.36459 0.60211,-1.18641 -0.42723,-0.10687 31.28886,-32.8146 14.83863,-15.30258 27.21475,-28.12216 27.50249,-28.48796 0.28774,-0.3658 1.08627,-0.93769 1.77451,-1.27086 1.24991,-0.60507 1.29629,-0.60576 40.56234,-0.60576 h 39.31101 l 1.50791,-2.97467 c 0.82935,-1.63607 2.82884,-5.45598 4.4433,-8.48869 1.61445,-3.03272 5.81164,-11.06433 9.32709,-17.84802 3.51544,-6.7837 7.0798,-13.57466 7.92081,-15.09101 0.841,-1.51636 2.87071,-5.36892 4.51045,-8.56125 1.63974,-3.19233 3.31363,-6.1642 3.71976,-6.60415 1.2907,-1.39823 1.99388,-1.42354 9.69666,-0.34899 55.16044,7.69495 72.07309,10.18467 73.30367,10.79105 1.31368,0.64733 2.12438,2.02961 2.14909,3.66428 0.0151,0.99995 -0.31784,1.89531 -1.59216,4.28148 -4.89736,9.1703 -21.11007,40.62443 -21.1136,40.96231 -0.001,0.11971 14.08252,0.21766 31.29728,0.21766 21.05102,0 31.58491,0.0995 32.17103,0.30379 0.54314,0.18934 3.75391,3.27819 8.52211,8.19849 4.20785,4.34207 12.75402,13.11849 18.99149,19.50315 10.56206,10.81131 20.01462,20.58571 29.08137,30.07155 2.65243,2.77504 3.92084,4.33123 4.25776,5.22381 0.44439,1.17727 0.47407,11.8138 0.40125,143.79008 l -0.0786,142.51876 -0.8309,1.19898 c -0.51918,0.74918 -1.38431,1.47475 -2.30612,1.93411 l -1.47523,0.73513 -175.01323,-0.0249 c -96.25727,-0.0137 -175.38085,-0.13529 -175.83018,-0.27016 z m 343.26677,-146.1651 c 0,-73.76941 -0.0749,-134.20104 -0.16635,-134.29252 -0.1636,-0.16358 -88.94835,-0.23122 -252.10018,-0.19207 l -82.78289,0.0199 v 134.36827 134.36827 l 167.52471,-0.0728 167.52471,-0.0728 z m -192.31269,98.27819 c -1.68072,-0.88787 -5.68419,-5.19282 -5.24116,-5.63584 0.11544,-0.11544 0.014,-0.16636 -0.22543,-0.11315 -0.23943,0.0532 -0.40267,-0.0665 -0.36277,-0.26603 0.0399,-0.19952 -0.0657,-0.36277 -0.23478,-0.36277 -0.16904,0 -0.21416,-0.15077 -0.10027,-0.33505 0.12038,-0.19477 0.0804,-0.25675 -0.0956,-0.14802 -0.4081,0.25222 -16.45873,-18.51661 -16.19704,-18.94004 0.0795,-0.12854 -0.14407,-0.47971 -0.49669,-0.78037 -0.53342,-0.45482 -0.57506,-0.46133 -0.24783,-0.0388 0.21631,0.27933 0.33662,0.50787 0.26736,0.50787 -0.24316,0 -3.28186,-3.83863 -3.21929,-4.06677 0.0348,-0.1269 -0.16109,-0.4065 -0.43532,-0.62133 -0.45573,-0.35702 -0.4643,-0.3407 -0.0996,0.18982 0.21944,0.31924 0.0543,0.21184 -0.36691,-0.23866 -0.42124,-0.4505 -0.67854,-0.96041 -0.57179,-1.13313 0.10675,-0.17273 0.0614,-0.23204 -0.10081,-0.13179 -0.46834,0.28945 -8.0573,-8.54787 -7.69012,-8.95512 0.1126,-0.12489 0.056,-0.14212 -0.12575,-0.0383 -0.39025,0.22296 -1.91658,-1.65941 -1.6159,-1.99284 0.11281,-0.1251 0.0593,-0.1443 -0.11887,-0.0427 -0.4409,0.25148 -1.3848,-0.83558 -1.11067,-1.27913 0.13085,-0.21173 0.0973,-0.27849 -0.0838,-0.16659 -0.37612,0.23245 -1.02253,-0.49836 -0.72818,-0.82328 0.11832,-0.13062 0.0667,-0.15269 -0.11474,-0.049 -0.37391,0.21359 -1.07357,-0.48157 -0.78008,-0.77506 0.10502,-0.10502 0.0309,-0.19095 -0.16475,-0.19095 -0.19564,0 -0.26253,-0.15078 -0.14864,-0.33505 0.12026,-0.19458 0.0804,-0.25676 -0.0951,-0.14831 -0.36859,0.22781 -1.02973,-0.49938 -0.72818,-0.80093 0.11832,-0.11833 0.0621,-0.17161 -0.12488,-0.1184 -0.46212,0.13147 -7.9569,-8.47161 -7.72895,-8.87187 0.0997,-0.17499 0.0743,-0.22135 -0.0563,-0.10303 -0.30545,0.27671 -1.06261,-0.34091 -0.84654,-0.69053 0.0899,-0.14549 -0.009,-0.22863 -0.22085,-0.18478 -0.21736,0.0451 -0.38451,-0.17243 -0.38472,-0.50068 -2.1e-4,-0.31923 -0.19611,-0.58635 -0.43532,-0.59361 -0.23921,-0.007 -0.39905,-0.18021 -0.35519,-0.38434 0.0439,-0.20413 -0.0366,-0.29922 -0.17888,-0.21131 -0.14223,0.0879 -0.50461,-0.12867 -0.80527,-0.4813 -0.46937,-0.55048 -0.47391,-0.58474 -0.0321,-0.24231 0.45803,0.35502 0.49199,0.33854 0.30932,-0.15011 -0.19707,-0.5272 -1.19558,-1.41303 -1.59773,-1.41744 -0.10641,-10e-4 -0.30231,-0.121 -0.43532,-0.2663 -0.13876,-0.15158 -0.0978,-0.18174 0.0961,-0.0707 0.18589,0.10639 0.39136,0.0333 0.4566,-0.16241 0.0652,-0.19571 -0.41334,-0.63526 -1.06351,-0.97677 -1.24553,-0.65422 -9.80703,-9.94167 -9.54918,-10.35888 0.0765,-0.12384 0.0247,-0.18929 -0.11511,-0.14543 -0.36714,0.11513 -2.13779,-1.97287 -1.88629,-2.22437 0.11607,-0.11608 0.0641,-0.16752 -0.11548,-0.11432 -0.35844,0.1062 -6.66362,-6.51059 -7.8479,-8.23575 -0.56898,-0.82884 -0.76504,-1.5314 -0.85039,-3.04722 -0.081,-1.43867 -0.0283,-1.85261 0.19534,-1.53471 0.2415,0.34327 0.26816,0.29957 0.12606,-0.2067 -0.0991,-0.3531 -0.0269,-0.94078 0.16041,-1.30595 0.49375,-0.96248 2.35578,-2.84244 2.64083,-2.66627 0.13368,0.0826 0.24305,0.004 0.24305,-0.17426 0,-0.18696 0.15373,-0.22842 0.36277,-0.0978 0.67386,0.42098 1.04455,0.33401 0.93786,-0.22003 -0.0765,-0.39738 0.11021,-0.60445 0.67234,-0.74553 0.83723,-0.21014 1.19454,-0.49377 1.76794,-1.4034 0.36459,-0.57836 0.31085,-0.25415 -0.14431,0.87064 -0.0969,0.23942 -0.0275,0.43532 0.15421,0.43532 0.1817,0 0.40525,-0.19515 0.49678,-0.43365 0.0915,-0.23851 0.25533,-0.3787 0.36402,-0.31152 0.10869,0.0672 0.19761,-0.11988 0.19761,-0.41568 0,-0.2958 -0.10261,-0.47439 -0.22802,-0.39688 -0.12541,0.0775 -0.22802,-0.0511 -0.22802,-0.28584 0,-0.42361 0.66861,-0.48667 1.05571,-0.0996 0.11103,0.11103 0.40865,0.19772 0.66137,0.19265 0.38605,-0.008 0.37449,-0.0737 -0.0723,-0.41229 -0.51344,-0.3891 -0.51225,-0.41353 0.0344,-0.70608 0.31143,-0.16668 0.66964,-0.20969 0.79603,-0.0956 0.12638,0.11409 0.13585,0.0442 0.021,-0.15532 -0.11881,-0.20645 -0.0555,-0.36276 0.14694,-0.36276 0.19564,0 0.27743,-0.0783 0.18175,-0.17397 -0.0957,-0.0957 0.18398,-0.52386 0.62146,-0.95151 0.43749,-0.42766 0.88169,-1.00235 0.98712,-1.2771 0.10543,-0.27475 0.3341,-0.49954 0.50814,-0.49954 0.17405,0 0.24594,-0.11409 0.15976,-0.25352 -0.17242,-0.27898 5.91768,-5.4498 6.28118,-5.33306 0.12425,0.0399 0.22591,-0.0658 0.22591,-0.23478 0,-0.16904 0.1306,-0.22663 0.29021,-0.12798 0.15962,0.0987 0.29022,-0.012 0.29022,-0.24591 0,-0.29343 0.19513,-0.37425 0.62937,-0.2607 0.51327,0.13423 0.59278,0.0692 0.43101,-0.35235 -0.15859,-0.41328 -0.0811,-0.48628 0.38636,-0.36403 0.38972,0.10191 0.58474,0.0111 0.58474,-0.27237 0,-0.2339 0.11691,-0.35302 0.2598,-0.2647 0.14289,0.0883 0.33786,-0.0429 0.43327,-0.29148 0.0954,-0.24863 0.29024,-0.37988 0.43296,-0.29167 0.14272,0.0882 0.24159,-0.0668 0.21971,-0.34437 -0.0219,-0.27761 0.1155,-0.47475 0.30529,-0.43809 0.18979,0.0367 0.42714,-0.19188 0.52743,-0.50787 0.10029,-0.31599 0.34948,-0.57453 0.55376,-0.57453 0.20427,0 0.526,-0.29384 0.71495,-0.65298 0.18894,-0.35913 0.28194,-0.43392 0.20665,-0.1662 -0.11848,0.42137 -0.0222,0.4468 0.71656,0.18927 0.93184,-0.32484 1.20001,-0.68005 0.29706,-0.39346 -0.44851,0.14235 -0.52683,0.0636 -0.40398,-0.40616 0.0838,-0.3205 0.37965,-0.65486 0.65743,-0.74302 0.27778,-0.0882 0.65602,-0.49164 0.84054,-0.89662 0.18451,-0.40497 0.46876,-0.65394 0.63165,-0.55327 0.16289,0.10067 0.26028,0.074 0.21643,-0.0592 -0.12338,-0.37474 3.43934,-3.53538 4.20046,-3.72641 0.37183,-0.0933 0.99744,-0.0509 1.39025,0.0943 0.39281,0.14519 1.27187,0.24018 1.95346,0.21109 0.73048,-0.0312 1.36951,0.10403 1.5565,0.32934 0.17447,0.21023 0.41718,0.32047 0.53935,0.24496 0.28947,-0.1789 3.81011,4.07487 3.57071,4.31427 -0.10042,0.10042 -0.0302,0.18258 0.156,0.18258 0.18622,0 0.33858,0.19589 0.33858,0.43532 0,0.23942 0.11641,0.43531 0.2587,0.43531 0.39996,0 1.23277,2.31758 1.04519,2.9086 -0.13519,0.42596 -0.0406,0.49876 0.49801,0.38325 0.60142,-0.12898 0.61847,-0.10436 0.1786,0.25792 -0.45229,0.37252 -0.44802,0.42443 0.0611,0.74237 0.30106,0.18801 0.76732,0.25744 1.03613,0.15429 0.29789,-0.11431 0.62964,0.005 0.8495,0.30578 0.19841,0.27134 0.53272,0.4558 0.74293,0.40992 0.2102,-0.0459 0.39336,0.0472 0.40702,0.20679 0.0137,0.15962 0.41138,0.69382 0.88382,1.18712 1.24229,1.29713 5.35727,6.39743 5.35727,6.64005 0,0.11315 0.29384,0.46514 0.65298,0.78222 0.35914,0.31707 0.49123,0.49447 0.29354,0.39421 -0.23673,-0.12005 -0.30044,-0.0285 -0.18661,0.2681 0.0951,0.24772 0.34704,0.45039 0.55997,0.45039 0.21293,0 0.48032,0.15078 0.59421,0.33505 0.14056,0.22744 0.0761,0.25615 -0.20053,0.0894 -0.33403,-0.20132 -0.34258,-0.1653 -0.0474,0.19952 0.19814,0.24485 0.26344,0.54199 0.14511,0.66032 -0.11833,0.11832 -0.0846,0.18879 0.0751,0.15659 0.15962,-0.0322 0.46945,-0.0431 0.68851,-0.0242 0.33759,0.0291 0.33759,0.10921 0,0.5254 -0.27064,0.33364 -0.28203,0.42117 -0.0355,0.27308 0.23054,-0.1385 0.36276,-0.0468 0.36276,0.25163 0,0.29842 0.13222,0.39013 0.36277,0.25163 0.21142,-0.12702 0.18115,0.0102 -0.0726,0.32879 -0.25371,0.31865 -0.28397,0.45582 -0.0725,0.3288 0.19952,-0.11987 0.36276,-0.10576 0.36276,0.0313 0,0.13711 -0.16324,0.422 -0.36276,0.63308 -0.29938,0.31671 -0.24867,0.32507 0.29021,0.0478 0.61738,-0.31763 0.78602,-0.22142 0.67203,0.38341 -0.0273,0.14499 0.12045,0.38585 0.32839,0.53524 0.27555,0.19797 0.24036,0.22733 -0.12978,0.10826 -0.32731,-0.10529 -0.50787,-0.0118 -0.50787,0.26283 0,0.26593 0.30013,0.43483 0.79808,0.44913 0.43894,0.0126 0.63588,0.0884 0.43763,0.16851 -0.26307,0.10627 -0.27938,0.29708 -0.0604,0.70631 0.24076,0.44987 0.4124,0.50059 0.86831,0.25659 0.5255,-0.28124 0.68946,-0.18076 0.60261,0.36929 -0.0189,0.11971 0.0636,0.19725 0.18329,0.17232 0.11971,-0.0249 0.54415,0.0974 0.94319,0.27182 0.39904,0.17443 0.56228,0.32542 0.36276,0.33554 -0.19952,0.0101 -0.36276,0.17076 -0.36276,0.35698 0,0.18622 0.0849,0.25364 0.18875,0.14982 0.10382,-0.10381 0.46295,0.10711 0.79809,0.46872 0.33513,0.36162 0.69472,0.65333 0.79908,0.64826 0.1981,-0.01 1.65352,1.6296 3.53479,3.98119 0.60654,0.75818 0.99971,1.37851 0.8737,1.37851 -0.12601,0 0.0557,0.19946 0.40373,0.44326 0.34806,0.24379 0.56411,0.62237 0.4801,0.84128 -0.084,0.21891 7e-4,0.49285 0.18825,0.60876 0.25325,0.15652 0.23968,0.27492 -0.0528,0.46023 -0.27902,0.17679 -0.29014,0.25078 -0.0382,0.25393 0.26333,0.003 0.28078,0.20116 0.0673,0.76276 -0.27371,0.71991 -0.24944,0.74856 0.4792,0.56568 0.61795,-0.15509 0.73386,-0.10493 0.59482,0.25743 -0.0975,0.25411 -0.0187,0.45199 0.18095,0.4545 0.22315,0.003 0.19302,0.10726 -0.0817,0.28307 -0.31447,0.20128 -0.17415,0.24628 0.50545,0.16211 0.6629,-0.0821 1.02459,0.0271 1.22457,0.3699 0.1561,0.26753 0.28778,0.3832 0.29263,0.25703 0.0101,-0.26331 1.14353,0.81881 1.76009,1.68046 l 0.41533,0.58042 -0.71554,-0.58043 c -0.51608,-0.41864 -0.60884,-0.44241 -0.33278,-0.0853 0.21051,0.27234 0.28603,0.65165 0.16782,0.84292 -0.11968,0.19365 -0.0925,0.27207 0.0614,0.17697 0.152,-0.0939 0.46602,-0.0508 0.69782,0.0958 0.35196,0.22266 0.35422,0.26736 0.0137,0.27107 -0.31205,0.003 -0.28468,0.14043 0.1166,0.58384 0.42479,0.46939 0.61242,0.51337 0.98817,0.23166 0.38866,-0.2914 0.40504,-0.28183 0.10105,0.0591 -0.48201,0.54055 -0.45738,0.77274 0.10487,0.9885 0.33461,0.1284 0.41975,0.0547 0.29932,-0.25916 -0.0926,-0.24124 -0.0418,-0.43861 0.11279,-0.43861 0.15461,0 0.28111,0.18192 0.28111,0.40427 0,0.22234 0.20417,0.48261 0.45371,0.57837 0.24954,0.0958 0.38918,0.27851 0.31031,0.40612 -0.0789,0.12761 0.10625,0.25083 0.41138,0.27381 0.3754,0.0283 1.36145,-0.93022 3.04989,-2.96467 1.37232,-1.65355 2.68905,-3.08088 2.92607,-3.17183 0.23701,-0.091 0.35517,-0.28794 0.26257,-0.43777 -0.0926,-0.14982 0.0942,-0.45629 0.41508,-0.68105 0.32089,-0.22476 0.51294,-0.47914 0.42679,-0.56529 -0.0861,-0.0862 0.35349,-0.56068 0.97699,-1.0545 0.62349,-0.49382 1.21719,-0.81429 1.31933,-0.71215 0.10214,0.10214 0.18571,0.0333 0.18571,-0.15287 0,-0.44103 -0.36372,-0.4308 -0.86015,0.0242 -0.2177,0.19952 0.23236,-0.4208 1.00014,-1.3785 0.76777,-0.9577 1.50744,-1.70862 1.64372,-1.66872 0.13627,0.0399 0.21512,-0.0419 0.17522,-0.18178 -0.0932,-0.32656 1.43604,-2.06736 1.81606,-2.06736 0.15838,0 0.28797,-0.19589 0.28797,-0.43532 0,-0.23942 0.1306,-0.43532 0.29021,-0.43532 0.15962,0 0.29022,-0.2036 0.29022,-0.45244 0,-0.24885 0.11666,-0.38034 0.25925,-0.29222 0.14259,0.0881 0.34231,-0.1707 0.44382,-0.57516 0.10152,-0.40447 0.2965,-0.66622 0.43329,-0.58169 0.13679,0.0846 0.32006,-0.11915 0.40727,-0.45264 0.0872,-0.33355 0.29793,-0.52023 0.46831,-0.41493 0.27342,0.16898 0.43345,-0.1823 0.35001,-0.76832 -0.0157,-0.10999 0.23007,-0.28203 0.54606,-0.38233 0.52189,-0.16564 0.7032,-0.48914 0.60889,-1.08642 -0.0189,-0.11971 0.12888,-0.18501 0.3284,-0.1451 0.19952,0.0399 0.33012,-0.0907 0.29021,-0.29021 -0.0399,-0.19953 0.0907,-0.33012 0.29021,-0.29022 0.19952,0.0399 0.36371,-0.1672 0.36485,-0.46023 10e-4,-0.29303 0.23838,-0.70558 0.5272,-0.91676 0.28881,-0.21118 0.48376,-0.44629 0.43323,-0.52245 -0.0505,-0.0762 0.45964,-0.77368 1.13371,-1.55004 0.67407,-0.77636 1.87334,-2.27576 2.66504,-3.33199 0.7917,-1.05624 1.64409,-1.99895 1.89419,-2.09493 0.2501,-0.096 0.45474,-0.32343 0.45474,-0.50546 0,-0.18204 0.25444,-0.61057 0.56542,-0.9523 0.31099,-0.34173 1.23035,-1.4702 2.04304,-2.5077 0.81268,-1.03751 1.95275,-2.24552 2.53349,-2.68446 0.58074,-0.43895 0.95133,-0.79809 0.82355,-0.79809 -0.12779,0 -0.071,-0.19445 0.12629,-0.43212 0.19725,-0.23766 0.4946,-0.34808 0.6608,-0.24537 0.16744,0.10349 0.21624,0.0477 0.10946,-0.12506 -0.106,-0.1715 0.15263,-0.58346 0.57472,-0.91548 0.42208,-0.33201 0.66428,-0.60366 0.53821,-0.60366 -0.12608,0 -0.0128,-0.23914 0.2517,-0.53142 0.26451,-0.29228 0.3827,-0.63971 0.26264,-0.77206 -0.12006,-0.13235 -0.0551,-0.14669 0.14447,-0.0319 0.23135,0.13313 0.37107,0.0186 0.38568,-0.31624 0.0136,-0.31255 0.0828,-0.37629 0.17086,-0.15753 0.0933,0.23182 0.39001,0.0176 0.80368,-0.58042 0.36066,-0.52134 0.80145,-0.91681 0.97955,-0.87882 0.17809,0.038 0.2543,-0.11205 0.16936,-0.33341 -0.0849,-0.22136 -0.0128,-0.49001 0.16028,-0.597 0.1731,-0.10698 0.24314,-0.31034 0.15564,-0.45192 -0.0875,-0.14157 0.17157,-0.47406 0.57569,-0.73885 0.40413,-0.2648 0.73478,-0.65071 0.73478,-0.85759 0,-0.20688 0.40181,-0.71424 0.8929,-1.12747 0.4911,-0.41323 0.79822,-0.75133 0.68249,-0.75133 -0.11573,0 0.18903,-0.38173 0.67724,-0.84829 0.48821,-0.46656 0.82719,-0.90875 0.75329,-0.98265 -0.0739,-0.0739 0.199,-0.39659 0.60644,-0.71709 0.40745,-0.3205 0.74082,-0.70693 0.74082,-0.85874 0,-0.45625 1.10143,-1.30758 1.42944,-1.10486 0.19259,0.11902 0.23471,-0.004 0.11419,-0.33434 -0.18347,-0.50234 -0.1677,-0.50253 0.40037,-0.005 0.57624,0.50497 0.58794,0.5003 0.45747,-0.18225 -0.0916,-0.47912 0.0516,-0.83038 0.4531,-1.11162 0.32285,-0.22613 0.67832,-0.775 0.78993,-1.21969 0.11162,-0.4447 0.38202,-0.87727 0.60091,-0.96126 0.21889,-0.084 0.39797,-0.32447 0.39797,-0.53438 0,-0.2099 0.52238,-0.82879 1.16085,-1.37529 0.63847,-0.5465 1.16085,-1.09826 1.16085,-1.22613 0,-0.61873 6.06335,-7.45591 6.4178,-7.23685 0.13773,0.0851 0.16442,-0.0693 0.0593,-0.34323 -0.12966,-0.33787 -0.0819,-0.43053 0.14843,-0.28816 0.20377,0.12594 0.33953,0.0289 0.33953,-0.2426 0,-0.24885 0.0979,-0.43698 0.21766,-0.41808 0.58689,0.0927 0.94318,-0.073 0.94318,-0.43864 0,-0.38874 0.78265,-0.89806 1.2334,-0.80265 0.11972,0.0253 0.21766,-0.0922 0.21766,-0.26127 0,-0.16903 0.1518,-0.21352 0.33732,-0.0989 0.22988,0.14207 0.11433,0.39397 -0.36276,0.79084 -0.57364,0.47717 -0.59525,0.5412 -0.11966,0.3545 0.31923,-0.12532 0.73661,-0.23406 0.92751,-0.24165 0.24623,-0.01 0.26435,-0.16841 0.0623,-0.54586 -0.15661,-0.29263 -0.1822,-0.53405 -0.0569,-0.53649 0.12532,-0.002 0.0479,-0.11844 -0.17208,-0.25777 -0.21997,-0.13933 -0.30538,-0.40633 -0.1898,-0.59335 0.14874,-0.24065 0.32326,-0.18653 0.59721,0.18522 0.34169,0.46367 0.37609,0.3859 0.29352,-0.66361 -0.087,-1.1056 0.0403,-1.3393 1.81712,-3.33744 1.05085,-1.18172 2.04894,-2.10505 2.21796,-2.05185 0.16903,0.0532 0.21367,0.003 0.0992,-0.11137 -0.24506,-0.24506 2.90045,-3.91456 3.27582,-3.82153 0.14072,0.0349 0.55282,-0.26924 0.91577,-0.67582 0.36295,-0.40658 0.54597,-0.56982 0.40672,-0.36276 -0.15957,0.23725 -0.12937,0.37646 0.0817,0.37646 0.18417,0 0.40973,-0.19514 0.50126,-0.43365 0.0915,-0.23851 0.28182,-0.36232 0.42288,-0.27514 0.14107,0.0872 0.17807,-0.0458 0.0822,-0.29557 -0.0958,-0.24975 -0.0178,-0.6426 0.17341,-0.873 0.19122,-0.23039 0.27257,-0.54042 0.18077,-0.68895 -0.0918,-0.14852 0.0526,-0.44808 0.32094,-0.66568 0.41448,-0.33616 0.45089,-0.33436 0.24218,0.0119 -0.168,0.27876 -0.13825,0.34122 0.0941,0.19761 0.18688,-0.1155 0.27544,-0.31412 0.19679,-0.44137 -0.0786,-0.12726 0.13756,-0.47737 0.48047,-0.77803 0.3429,-0.30066 0.52801,-0.38342 0.41134,-0.18389 -0.11666,0.19952 -0.0959,0.36276 0.0462,0.36276 0.14207,0 0.43303,-0.32649 0.64659,-0.72553 0.21357,-0.39904 0.49682,-0.72553 0.62947,-0.72553 0.13264,0 0.24117,-0.21759 0.24117,-0.48352 0,-0.26594 0.19039,-0.69038 0.4231,-0.94319 0.2327,-0.25282 0.8999,-1.01362 1.48266,-1.69066 0.58276,-0.67705 1.19611,-1.1466 1.36301,-1.04345 0.1669,0.10314 0.21965,0.052 0.11723,-0.11377 -0.10242,-0.16572 0.29023,-0.70828 0.87256,-1.20569 0.58232,-0.4974 0.94522,-0.90438 0.80644,-0.90438 -0.13878,0 0.22238,-0.44775 0.80257,-0.99501 0.5802,-0.54725 1.19968,-1.26553 1.37663,-1.59616 0.17695,-0.33063 0.53479,-0.60116 0.7952,-0.60116 0.26041,0 0.39647,-0.077 0.30235,-0.17112 -0.21984,-0.21984 1.51281,-2.02917 1.85098,-1.93291 0.14019,0.0399 0.25489,-0.0763 0.25489,-0.25822 0,-0.44599 0.89638,-1.09966 1.52361,-1.11106 0.27933,-0.005 0.48018,-0.10717 0.44633,-0.22688 -0.10752,-0.38027 0.76614,-1.52362 1.16422,-1.52362 0.21045,0 0.29387,-0.14362 0.18538,-0.31916 -0.14142,-0.22883 -0.0373,-0.23354 0.36797,-0.0167 0.44588,0.23863 0.66773,0.18276 1.05076,-0.26458 0.51765,-0.60457 0.64274,-0.98205 0.2437,-0.73543 -0.13302,0.0822 -0.24185,-0.0518 -0.24185,-0.29767 0,-0.30914 0.20451,-0.40805 0.66263,-0.32047 0.78463,0.14999 1.16907,-0.52364 0.45571,-0.79853 -0.45417,-0.17501 -0.45268,-0.20933 0.0206,-0.47504 0.28059,-0.15752 0.66192,-0.19261 0.8474,-0.078 0.22886,0.14144 0.27475,0.0456 0.14281,-0.29824 -0.10695,-0.27867 -0.19444,-0.57727 -0.19444,-0.66357 0,-0.0863 -0.22854,0.0223 -0.50787,0.2414 -0.46029,0.36098 -0.47056,0.35072 -0.10957,-0.10958 0.21906,-0.27933 0.5782,-0.50787 0.79808,-0.50787 0.21988,0 0.36713,-0.11533 0.32723,-0.2563 -0.0904,-0.31934 5.22311,-5.83814 5.62097,-5.83814 0.15954,0 0.22215,-0.10991 0.13913,-0.24423 -0.083,-0.13433 0.32067,-0.68935 0.89709,-1.2334 0.57642,-0.54405 0.96887,-0.84769 0.87211,-0.67478 -0.0968,0.17292 0.008,0.3144 0.23386,0.3144 0.22539,0 0.35332,-0.0914 0.28429,-0.20306 -0.069,-0.11168 0.12954,-0.43386 0.44124,-0.71594 0.31171,-0.28209 0.51026,-0.60427 0.44124,-0.71595 -0.069,-0.11168 0.0646,-0.20306 0.29706,-0.20306 0.2324,0 0.36185,0.0607 0.28765,0.1349 -0.25548,0.25549 0.44628,1.21942 0.88777,1.21942 0.24323,0 0.37784,-0.10418 0.29915,-0.23151 -0.0787,-0.12734 -0.0534,-0.37668 0.0563,-0.55409 0.22418,-0.36274 1.28498,0.3594 1.59513,1.08589 0.0999,0.23388 0.17274,-0.0971 0.162,-0.7356 -0.0298,-1.7692 0.001,-1.88638 0.50305,-1.88638 0.29532,0 0.4051,-0.15966 0.29932,-0.43532 -0.0919,-0.23942 -0.008,-0.43929 0.18661,-0.44414 0.19451,-0.005 0.11788,-0.14599 -0.1703,-0.31364 -0.36441,-0.21199 -0.43638,-0.41035 -0.23634,-0.65138 0.1582,-0.19062 0.33522,-0.70195 0.39339,-1.13629 0.12014,-0.89713 1.90492,-2.89366 2.34411,-2.62223 0.15899,0.0983 0.20667,0.0453 0.10597,-0.11761 -0.10071,-0.16294 0.1054,-0.54226 0.45802,-0.84292 0.63297,-0.53969 0.63582,-0.53926 0.22345,0.0338 -0.22972,0.31923 0.0664,0.13037 0.65798,-0.4197 1.12517,-1.04615 1.43836,-1.52216 0.56779,-0.86299 -0.27933,0.21151 0.0145,-0.17986 0.65298,-0.86969 0.63846,-0.68984 1.68322,-1.497 2.32169,-1.7937 1.22617,-0.56981 3.7936,-0.7653 3.4846,-0.26532 -0.10187,0.16482 0.0153,0.21298 0.27532,0.1132 0.54652,-0.20972 1.72769,0.51942 2.32961,1.43806 0.51841,0.7912 2.56145,9.68055 2.31611,10.07752 -0.0929,0.15028 -0.0306,0.27323 0.13848,0.27323 0.16903,0 0.30734,0.2689 0.30734,0.59755 0,0.37778 -0.12323,0.52139 -0.33505,0.39048 -0.20926,-0.12933 -0.25621,-0.0795 -0.12506,0.13271 0.1155,0.18688 0.35062,0.25288 0.52249,0.14666 0.21066,-0.1302 0.24762,0.0653 0.11342,0.6 -0.14523,0.57863 -0.10507,0.73504 0.14849,0.57833 0.24403,-0.15082 0.29882,-0.0284 0.18391,0.411 -0.09,0.34419 -0.0396,0.62581 0.11211,0.62581 0.15167,0 0.24944,0.16324 0.21727,0.36276 -0.0322,0.19952 0.0235,0.55866 0.12377,0.79808 0.10024,0.23943 0.51989,1.74127 0.93255,3.33744 0.41265,1.59616 1.01405,3.85969 1.33644,5.03006 0.32239,1.17037 0.51251,2.31986 0.4225,2.55443 -0.0919,0.23941 -0.0378,0.3487 0.12323,0.24917 0.15779,-0.0975 0.28689,0.034 0.28689,0.29227 0,0.28018 -0.14631,0.39546 -0.36276,0.28581 -0.19952,-0.10106 -0.12553,0.01 0.16443,0.24666 0.28995,0.23673 0.50932,0.47495 0.48747,0.52939 -0.0219,0.0544 0.10538,0.48064 0.28273,0.94711 0.17735,0.46647 0.25333,1.02829 0.16883,1.24848 -0.0947,0.2467 -0.0274,0.32231 0.17534,0.19703 0.22489,-0.13899 0.28301,0.0371 0.1837,0.55656 -0.0799,0.41794 -0.0335,0.69083 0.10303,0.60643 0.13656,-0.0844 0.24829,-0.0258 0.24829,0.13016 0,0.15598 0.0776,0.52282 0.17248,0.81521 0.14345,0.44212 0.11977,0.45833 -0.14066,0.0963 -0.25386,-0.3529 -0.31398,-0.28422 -0.31759,0.36277 -0.003,0.5594 0.1431,0.79808 0.48892,0.79808 0.35448,0 0.40478,0.0886 0.17867,0.31469 -0.33553,0.33552 -0.17853,1.42658 0.20528,1.42658 0.12606,0 0.17468,-0.29384 0.10804,-0.65297 -0.0838,-0.45149 -0.0205,-0.39887 0.20493,0.17049 0.22089,0.55785 0.23092,0.91863 0.0311,1.11845 -0.19982,0.19982 -0.15151,0.71599 0.14974,1.60013 0.27262,0.80008 0.52774,1.17082 0.65926,0.95801 0.13773,-0.22286 0.28342,-0.0727 0.40691,0.41931 0.10581,0.42155 0.1029,0.91122 -0.006,1.08816 -0.12024,0.19455 -0.0664,0.23986 0.13623,0.11463 0.30747,-0.19003 0.45497,0.34238 0.41354,1.49277 -0.007,0.19781 0.12347,0.27533 0.2902,0.17228 0.19109,-0.1181 0.24267,0.044 0.13951,0.43844 -0.09,0.34419 -0.0394,0.62581 0.11254,0.62581 0.15684,0 0.19633,0.42573 0.0914,0.98518 -0.10166,0.54185 -0.0419,1.2522 0.13274,1.57855 0.21346,0.39886 0.22062,0.65328 0.0218,0.77614 -0.16265,0.10052 -0.21705,0.31009 -0.12088,0.46569 0.0962,0.15561 -0.0441,0.61715 -0.3118,1.02565 -0.56645,0.86453 -4.39876,4.53629 -4.59406,4.40161 -0.0727,-0.0501 -0.38503,0.13767 -0.69407,0.41735 -0.30904,0.27967 -0.67005,0.41027 -0.80224,0.29021 -0.13219,-0.12006 -0.15834,0.0102 -0.0581,0.28958 0.12257,0.34158 0.0371,0.50787 -0.2611,0.50787 -0.26121,0 -0.35827,0.13764 -0.23626,0.33505 0.11862,0.19194 0.0805,0.25684 -0.0892,0.15195 -0.37635,-0.2326 -1.32016,0.78401 -1.02744,1.10669 0.12006,0.13235 0.0529,0.14538 -0.14921,0.0289 -0.20212,-0.11643 -0.29236,-0.33325 -0.20053,-0.48184 0.0918,-0.14859 0.0134,-0.27016 -0.17421,-0.27016 -0.21512,0 -0.28519,0.29282 -0.18966,0.79256 0.13303,0.69588 0.1067,0.73128 -0.21582,0.29021 -0.47363,-0.64772 -1.02371,-0.64483 -1.04727,0.006 -0.0138,0.37972 -0.0864,0.3384 -0.28775,-0.16375 -0.22238,-0.55451 -0.85468,-0.6764 -0.85468,-0.16474 0,0.0798 0.1306,0.0644 0.29022,-0.0343 0.15961,-0.0987 0.29021,0.0319 0.29021,0.29021 0,0.25827 -0.10419,0.40519 -0.23152,0.32649 -0.12733,-0.0787 -0.42117,-0.0231 -0.65298,0.12354 -0.31482,0.19916 -0.32534,0.26774 -0.0416,0.27106 0.20894,0.002 0.29918,0.13504 0.20053,0.29466 -0.0987,0.15961 -0.0519,0.29021 0.10379,0.29021 0.15574,0 0.34954,-0.13386 0.43068,-0.29747 0.0811,-0.16361 0.11146,-0.13096 0.0674,0.0725 -0.0441,0.20351 -0.33795,0.36211 -0.65301,0.35243 -0.45476,-0.014 -0.54872,0.13562 -0.45579,0.72553 0.0927,0.58823 0.0528,0.65239 -0.19141,0.3078 -0.26041,-0.36748 -0.30987,-0.34487 -0.31737,0.14511 -0.008,0.49068 -0.057,0.51311 -0.31983,0.14511 -0.24981,-0.34974 -0.28281,-0.30695 -0.16784,0.21765 0.0787,0.35914 0.0389,0.65298 -0.0885,0.65298 -0.12738,0 -0.30785,0.29384 -0.40108,0.65298 -0.0932,0.35913 -2.06509,2.6119 -4.38193,5.00615 -2.31684,2.39425 -4.21366,4.42836 -4.21514,4.52025 -0.005,0.32898 -1.47577,1.54339 -1.95373,1.61354 -0.26811,0.0393 -0.70446,0.35922 -0.96968,0.71081 -0.30714,0.40719 -0.61829,0.55517 -0.85707,0.40759 -0.23758,-0.14683 -0.30376,-0.11662 -0.18071,0.0825 0.34775,0.56268 -0.98189,0.74783 -1.38745,0.1932 -0.29084,-0.39775 -0.41967,-0.42476 -0.60395,-0.12659 -0.16556,0.26788 -0.12153,0.30936 0.15012,0.14147 0.28143,-0.17393 0.33319,-0.10418 0.19327,0.26044 -0.11351,0.29581 -0.0746,0.42601 0.0958,0.32069 0.33405,-0.20645 0.37486,0.16044 0.0648,0.58248 -0.27291,0.37145 -1.03741,0.53953 -0.81465,0.1791 0.092,-0.14883 0.0447,-0.5765 -0.10514,-0.95038 -0.24784,-0.61854 -0.27713,-0.62749 -0.32516,-0.0994 -0.0827,0.90934 0.0456,1.4329 0.40776,1.66427 0.2385,0.15235 0.22533,0.21448 -0.0461,0.21766 -0.21463,0.003 -0.28906,0.15141 -0.1711,0.34228 0.14115,0.22839 0.42878,0.0821 0.88777,-0.4515 0.37343,-0.43414 0.67896,-0.67708 0.67896,-0.53987 0,0.1372 -0.45708,0.69248 -1.01574,1.23395 -0.99372,0.96316 -1.37348,1.70024 -0.65298,1.26738 0.2495,-0.1499 0.23923,-0.0656 -0.0329,0.26989 -0.21761,0.2683 -0.49246,0.42799 -0.61079,0.35486 -0.11833,-0.0731 -0.52797,0.22121 -0.9103,0.6541 l -0.69517,0.78706 0.72553,-0.5581 c 0.39904,-0.30696 -0.058,0.20734 -1.01574,1.14287 -0.9577,0.93554 -1.48119,1.51411 -1.16331,1.28571 0.31788,-0.2284 0.0359,0.2377 -0.62665,1.03579 -2.77991,3.34865 -4.52072,5.21887 -4.78811,5.14406 -0.15678,-0.0438 -0.20588,0.0484 -0.10912,0.20491 0.0968,0.15656 -0.1536,0.50057 -0.55636,0.76447 -0.40276,0.26389 -0.64793,0.6163 -0.54483,0.78312 0.1031,0.16682 0.051,0.21895 -0.11586,0.11585 -0.31239,-0.19307 -1.42281,1.21594 -1.29478,1.64296 0.0395,0.13157 -0.0503,0.1638 -0.19948,0.0716 -0.38349,-0.23701 -1.22436,0.13115 -1.0274,0.44983 0.0899,0.14549 0.31771,0.18384 0.5062,0.0852 0.18849,-0.0986 -0.0612,0.15381 -0.55482,0.56099 -1.00647,0.83018 -2.77548,3.03615 -2.12979,2.65587 0.22848,-0.13456 0.16664,0.039 -0.13743,0.38565 -0.61414,0.70019 -0.88832,0.823 -0.59728,0.26755 0.24596,-0.46943 -1.76444,1.72677 -2.48734,2.71721 -0.3044,0.41706 -0.47025,0.8415 -0.36855,0.94319 0.1017,0.1017 0.0325,0.1849 -0.15368,0.1849 -0.18622,0 -0.33858,0.18429 -0.33858,0.40952 0,0.22524 -0.36637,0.7178 -0.81416,1.09459 -0.44779,0.37679 -0.90395,0.91906 -1.01369,1.20504 -0.11504,0.29977 -0.34229,0.43174 -0.53664,0.31163 -0.21032,-0.12999 -0.25874,-0.0816 -0.12876,0.12876 0.11662,0.18869 0.009,0.41375 -0.24537,0.51121 -0.24954,0.0958 -0.45371,0.34003 -0.45371,0.54283 0,0.20281 -0.22854,0.54797 -0.50787,0.76704 -0.46029,0.36099 -0.47056,0.35072 -0.10957,-0.10957 0.21906,-0.27933 0.33887,-0.50787 0.26623,-0.50787 -0.0726,0 -0.57316,0.55503 -1.11226,1.2334 -0.53911,0.67837 -0.72421,1.03975 -0.41134,0.80308 0.5595,-0.42323 0.55993,-0.41984 0.0264,0.20614 -0.29833,0.35005 -0.68236,0.60899 -0.8534,0.57542 -0.17104,-0.0336 -0.36405,0.20016 -0.42893,0.51939 -0.0649,0.31923 -0.25504,0.71102 -0.42258,0.87064 -0.20992,0.2 -0.22896,0.15489 -0.0612,-0.14511 0.21088,-0.37717 0.17687,-0.38133 -0.25464,-0.0312 -0.27393,0.22227 -0.43162,0.47055 -0.35043,0.55173 0.0812,0.0812 -0.0789,0.33345 -0.35576,0.56059 -0.27684,0.22714 -0.3096,0.31144 -0.0728,0.18732 0.23681,-0.12411 -0.0633,0.37701 -0.66686,1.11361 -0.60358,0.73659 -1.28828,1.4125 -1.52155,1.50201 -0.23327,0.0895 -0.39027,0.26433 -0.34888,0.38849 0.0414,0.12415 -0.003,0.22573 -0.0978,0.22573 -0.37193,0 -1.11783,0.80535 -0.96897,1.04619 0.0866,0.1402 -0.16214,0.57457 -0.55284,0.96527 -0.39071,0.39071 -0.64621,0.77454 -0.56779,0.85296 0.0784,0.0784 -0.13132,0.31365 -0.4661,0.52272 -0.33477,0.20907 -0.60868,0.48628 -0.60868,0.61602 0,0.19569 -2.27451,3.15131 -3.72172,4.83621 -0.32158,0.37439 -0.34801,0.37636 -0.16195,0.0121 0.19092,-0.37381 0.1534,-0.37942 -0.2655,-0.0397 -0.2683,0.2176 -0.42122,0.50342 -0.33982,0.63514 0.0814,0.13172 -0.0833,0.36892 -0.36596,0.52712 -0.28268,0.1582 -0.48132,0.39477 -0.44142,0.52571 0.0399,0.13094 -0.0254,0.24007 -0.1451,0.24252 -0.49642,0.0101 -0.95327,0.5064 -0.87833,0.95411 0.0441,0.26371 -0.0765,0.48241 -0.26801,0.48599 -0.48617,0.009 -0.98344,0.5575 -1.07573,1.18636 -0.0428,0.2916 -0.30973,0.6678 -0.59318,0.83601 -0.74907,0.44453 -2.1909,1.90192 -2.1909,2.21453 0,0.14735 -0.39179,0.26789 -0.87064,0.26789 -0.47885,0 -0.87063,0.11837 -0.87063,0.26305 0,0.14467 0.27388,0.19142 0.60862,0.10388 0.5584,-0.14603 0.57642,-0.10758 0.21826,0.46592 -0.21471,0.3438 -0.54723,0.56489 -0.73896,0.49132 -0.21196,-0.0813 -0.2837,0.0353 -0.18305,0.29759 0.091,0.23724 -0.0561,0.67622 -0.32694,0.9755 -0.27085,0.29929 -0.52083,0.73752 -0.55552,0.97384 -0.0863,0.58779 -6.7113,9.0367 -8.22627,10.49098 -0.67268,0.64572 -1.55956,1.63112 -1.97086,2.18978 -0.41131,0.55866 -0.87305,1.03206 -1.02611,1.05202 -0.15305,0.02 -0.40477,0.0526 -0.55938,0.0725 -0.15461,0.02 -0.21252,0.21501 -0.12869,0.43345 0.0895,0.23331 -0.0861,0.45955 -0.42565,0.54835 -0.42728,0.11173 -0.53511,0.3154 -0.4134,0.78081 0.12422,0.475 0.0127,0.66939 -0.4541,0.79146 -0.35976,0.0941 -0.61875,0.3944 -0.61875,0.71749 0,0.30563 -0.20642,0.63489 -0.4587,0.7317 -0.28138,0.10798 -0.40239,0.39134 -0.31304,0.73301 0.11877,0.45421 0.0695,0.49382 -0.26683,0.21466 -0.33061,-0.27438 -0.42127,-0.23446 -0.45669,0.20107 -0.0243,0.29887 -0.0631,0.7393 -0.0861,0.97872 -0.023,0.23943 -0.18951,0.40585 -0.36992,0.36983 -0.1804,-0.036 -0.50002,0.32312 -0.71026,0.79808 -0.21024,0.47497 -0.4842,0.86357 -0.60881,0.86357 -0.1246,0 -0.3384,0.29384 -0.47511,0.65298 -0.39435,1.03594 -6.12174,8.38382 -6.12174,7.8538 0,-0.12088 -0.22752,0.10312 -0.50561,0.49777 -0.27809,0.39466 -0.47666,0.80749 -0.44126,0.9174 0.0354,0.10993 -0.17475,0.15381 -0.467,0.0975 -0.29225,-0.0563 -0.74539,0.14763 -1.00697,0.45313 -0.27083,0.31631 -0.33657,0.55546 -0.15269,0.55546 0.22001,0 0.20779,0.13871 -0.0384,0.43531 -0.19871,0.23943 -0.57384,0.42501 -0.83362,0.41241 -0.32381,-0.0157 -0.35343,-0.0705 -0.0942,-0.17442 0.28298,-0.11337 0.24646,-0.25136 -0.1451,-0.54828 -0.28779,-0.21823 -0.65385,-0.39696 -0.81347,-0.39718 -0.15962,-2.2e-4 -0.0869,0.1186 0.16163,0.26405 0.47708,0.27922 0.57159,2.14777 0.12892,2.54896 -0.13118,0.11889 -0.14456,0.0529 -0.0297,-0.14661 0.11482,-0.19952 0.0705,-0.36276 -0.0986,-0.36276 -0.16903,0 -0.30933,0.22854 -0.31178,0.50787 -0.002,0.27933 -0.14536,0.70376 -0.31759,0.94319 -0.26035,0.36193 -0.28403,0.34561 -0.14046,-0.0968 0.11359,-0.35003 0.0485,-0.49072 -0.19028,-0.41114 -0.19963,0.0665 -0.37929,0.27335 -0.39924,0.45957 -0.0199,0.18622 -0.0526,0.50951 -0.0726,0.71843 -0.02,0.20892 -0.24186,0.63335 -0.49312,0.94319 -0.25126,0.30983 -0.36819,0.39045 -0.25984,0.17915 0.16227,-0.31647 0.0914,-0.31823 -0.40222,-0.01 -0.38442,0.24007 -0.4846,0.44506 -0.27946,0.57184 0.21456,0.1326 0.10877,0.49395 -0.32155,1.09827 -0.35272,0.49536 -0.55265,0.90065 -0.44429,0.90065 0.10836,0 -0.0522,0.22854 -0.35668,0.50787 -0.30454,0.27933 -0.36009,0.37727 -0.12345,0.21766 0.40492,-0.27312 -1.17924,1.82915 -5.86088,7.77774 -1.1055,1.40466 -2.07947,2.48445 -2.1644,2.39953 -0.0849,-0.0849 -0.3962,0.12439 -0.69174,0.46514 -0.36254,0.41802 -0.53878,0.4871 -0.54178,0.21238 -0.004,-0.33934 -0.0489,-0.33695 -0.27106,0.0143 -0.14664,0.2318 -0.18487,0.55829 -0.0849,0.72553 0.0999,0.16724 -0.0266,0.13537 -0.28114,-0.0708 -0.37822,-0.30636 -0.48586,-0.30636 -0.58894,0 -0.10106,0.30036 -0.22344,0.29455 -0.61566,-0.0292 -0.26924,-0.22227 -0.57343,-0.32021 -0.67598,-0.21766 -0.10256,0.10255 -0.0341,0.18646 0.15212,0.18646 0.18622,0 0.30593,0.16325 0.26602,0.36277 -0.0399,0.19952 0.0907,0.33011 0.29022,0.29021 0.19952,-0.0399 0.36276,0.058 0.36276,0.21766 0,0.15961 -0.19589,0.29021 -0.43532,0.29021 -0.23942,0 -0.43531,0.1383 -0.43531,0.30734 0,0.16903 0.13059,0.22662 0.29021,0.12797 0.15961,-0.0987 0.29021,-0.0411 0.29021,0.12798 0,0.16905 -0.1799,0.30735 -0.39978,0.30735 -0.21988,0 -0.56236,0.1959 -0.76107,0.43532 -0.23832,0.28716 -0.25351,0.43532 -0.0446,0.43532 0.17415,0 0.24175,0.19514 0.15023,0.43365 -0.0915,0.23851 -0.28332,0.3614 -0.42621,0.27308 -0.14289,-0.0883 -0.2598,-0.0146 -0.2598,0.1639 0,0.17846 -0.15117,0.23104 -0.33593,0.11686 -0.23016,-0.14225 -0.2844,-0.0106 -0.17227,0.41819 0.11031,0.42185 0.0306,0.6258 -0.2445,0.6258 -0.4108,0 -0.45061,0.0902 -0.51698,1.17143 -0.0199,0.32506 -0.23217,0.71484 -0.47159,0.86619 -0.23943,0.15135 -0.32789,0.27719 -0.1966,0.27963 0.62937,0.0117 -3.57642,4.48299 -4.82332,5.12779 -0.46019,0.23797 -1.02759,0.35942 -1.2609,0.26989 -0.27151,-0.10419 -0.34941,-0.0418 -0.21641,0.17343 0.14072,0.22769 0.0443,0.27345 -0.29888,0.14178 -0.27866,-0.10693 -0.56898,-0.19442 -0.64515,-0.19442 -0.0762,0 -0.0578,-0.1306 0.0409,-0.29021 0.0987,-0.15962 0.0411,-0.29022 -0.12798,-0.29022 -0.16904,0 -0.30734,0.13309 -0.30734,0.29574 0,0.17055 -0.30714,0.21865 -0.72553,0.11365 -0.44704,-0.1122 -0.72553,-0.0586 -0.72553,0.13957 0,0.47984 -0.88082,0.3673 -2.07891,-0.26561 z m -24.04014,-27.95358 c 0,-0.0551 -0.29384,-0.34891 -0.65298,-0.65297 l -0.65297,-0.55286 0.55285,0.65298 c 0.51954,0.61364 0.7531,0.78509 0.7531,0.55285 z m 54.96074,-5.28386 c 0.0991,-0.25827 0.0505,-0.37476 -0.11405,-0.27309 -0.15779,0.0975 -0.28689,0.3002 -0.28689,0.4504 0,0.41744 0.20801,0.32546 0.40094,-0.17731 z m -2.00747,-1.51061 c -0.31125,-0.27819 -0.41381,-0.32664 -0.2279,-0.10767 0.18591,0.21897 0.2637,0.61076 0.17287,0.87063 -0.13473,0.3855 -0.0928,0.40533 0.2279,0.10767 0.32826,-0.3047 0.29976,-0.44821 -0.17287,-0.87063 z m 11.6672,-12.1015 c 0,-0.23241 -0.11096,-0.35398 -0.24657,-0.27016 -0.13562,0.0838 -0.17145,0.27396 -0.0796,0.42255 0.23467,0.37971 0.32618,0.33695 0.32618,-0.15239 z m -92.48079,-14.95867 c 0,-0.15962 -0.1306,-0.29021 -0.29022,-0.29021 -0.15961,0 -0.29021,0.13059 -0.29021,0.29021 0,0.15961 0.1306,0.29021 0.29021,0.29021 0.15962,0 0.29022,-0.1306 0.29022,-0.29021 z m 111.94312,-8.01106 c -0.0964,-0.0964 -0.34675,-0.10674 -0.55624,-0.0229 -0.23151,0.0926 -0.16275,0.16141 0.17533,0.17533 0.30593,0.0126 0.47734,-0.056 0.38091,-0.15242 z m 1.06993,-0.88145 c 0.15284,-0.39831 0.11038,-0.41626 -0.25916,-0.10957 -0.50359,0.41794 -0.556,0.58594 -0.1828,0.58594 0.14254,0 0.34142,-0.21437 0.44196,-0.47637 z m -62.59482,-0.85982 c -0.0964,-0.0964 -0.34674,-0.10674 -0.55623,-0.0229 -0.23152,0.0926 -0.16275,0.16141 0.17533,0.17533 0.30593,0.0126 0.47734,-0.056 0.3809,-0.15242 z m -0.50182,-1.09508 c 0,-0.0603 -0.22854,-0.2888 -0.50787,-0.50787 -0.46029,-0.36098 -0.47056,-0.35072 -0.10957,0.10957 0.37912,0.48342 0.61744,0.63716 0.61744,0.3983 z m -4.06296,-4.53381 c 0,-0.15962 -0.13831,-0.29021 -0.30734,-0.29021 -0.16904,0 -0.22663,0.13059 -0.12798,0.29021 0.0986,0.15961 0.23695,0.29021 0.30734,0.29021 0.0704,0 0.12798,-0.1306 0.12798,-0.29021 z m 90.29286,-20.53248 c 0.36098,-0.46029 0.35072,-0.47056 -0.10958,-0.10957 -0.48342,0.37912 -0.63715,0.61744 -0.3983,0.61744 0.0603,0 0.28881,-0.22854 0.50788,-0.50787 z M 211.91899,309.33578 c 0.0986,-0.15962 0.0411,-0.29021 -0.12798,-0.29021 -0.16904,0 -0.30734,0.13059 -0.30734,0.29021 0,0.15962 0.0576,0.29021 0.12798,0.29021 0.0704,0 0.20869,-0.13059 0.30734,-0.29021 z m 135.34493,-12.55165 c -0.14949,-0.27933 -0.35427,-0.50788 -0.45507,-0.50788 -0.10079,0 -0.0982,0.085 0.006,0.18897 0.10393,0.10393 -0.007,0.33247 -0.24717,0.50787 -0.36108,0.26403 -0.31529,0.31891 0.26611,0.31891 0.57886,0 0.65448,-0.0892 0.43043,-0.50787 z m 6.42349,-3.84531 c 0.37488,-0.39904 0.6163,-0.72553 0.53649,-0.72553 -0.0798,0 -0.45182,0.32649 -0.82671,0.72553 -0.37488,0.39904 -0.6163,0.72553 -0.53649,0.72553 0.0798,0 0.45182,-0.32649 0.82671,-0.72553 z m 19.02712,-19.08142 0.85238,-0.94319 -0.94319,0.85238 c -0.51875,0.46881 -0.94319,0.89324 -0.94319,0.94319 0,0.2242 0.23946,0.0268 1.034,-0.85238 z m -55.0192,-5.30338 c -0.2019,-0.24328 -0.44265,-0.36677 -0.535,-0.27443 -0.0923,0.0923 0.0242,0.2894 0.25902,0.43789 0.61437,0.38854 0.69464,0.34099 0.27598,-0.16346 z m 15.71268,-19.48795 c -0.25293,-0.43496 -0.30956,-0.4475 -0.31681,-0.0701 -0.009,0.48874 0.29578,0.92879 0.50146,0.72311 0.0678,-0.0678 -0.0153,-0.36167 -0.18465,-0.65297 z m 1.12542,-0.0943 c 0,-0.15962 -0.0576,-0.29021 -0.12797,-0.29021 -0.0704,0 -0.2087,0.13059 -0.30734,0.29021 -0.0987,0.15961 -0.0411,0.29021 0.12797,0.29021 0.16904,0 0.30734,-0.1306 0.30734,-0.29021 z m 16.68718,-13.93016 c 0.0986,-0.15962 0.0411,-0.29022 -0.12798,-0.29022 -0.16904,0 -0.30734,0.1306 -0.30734,0.29022 0,0.15961 0.0576,0.29021 0.12798,0.29021 0.0704,0 0.20869,-0.1306 0.30734,-0.29021 z m -4.00983,-0.92505 c -0.0926,-0.23152 -0.16141,-0.16275 -0.17533,0.17533 -0.0126,0.30593 0.056,0.47734 0.15242,0.38091 0.0964,-0.0964 0.10675,-0.34675 0.0229,-0.55624 z m 4.35092,-0.71697 c -0.10502,-0.10503 -0.054,-0.35594 0.11333,-0.55759 0.23305,-0.28082 0.1631,-0.32972 -0.29885,-0.20891 -0.47465,0.12412 -0.53243,0.2429 -0.27126,0.55759 0.18252,0.21992 0.40293,0.39987 0.4898,0.39987 0.0869,0 0.072,-0.0859 -0.033,-0.19096 z m 1.25462,-2.92082 c 0.0795,-0.0704 -0.0968,-0.30453 -0.39183,-0.52029 -0.29506,-0.21575 -0.45597,-0.52254 -0.35758,-0.68175 0.0984,-0.1592 0.0576,-0.36443 -0.0906,-0.45605 -0.14825,-0.0916 -0.23279,0.16832 -0.18785,0.57765 0.0449,0.40933 -0.11287,0.9388 -0.35067,1.1766 -0.38301,0.38301 -0.33726,0.40951 0.40078,0.23211 0.45822,-0.11014 0.89823,-0.25787 0.97779,-0.32827 z m -124.86859,98.85838 c 0.10262,-0.39243 0.23418,-0.52398 0.30663,-0.30663 0.0698,0.20937 -0.0111,0.51866 -0.17974,0.6873 -0.21535,0.21536 -0.25312,0.10205 -0.12689,-0.38067 z m 106.15039,-14.19711 c 0.2889,-0.31924 0.59057,-0.58043 0.67038,-0.58043 0.0798,0 -0.0913,0.26119 -0.38017,0.58043 -0.28891,0.31923 -0.59058,0.58042 -0.67039,0.58042 -0.0798,0 0.0913,-0.26119 0.38018,-0.58042 z m -120.58297,-3.20946 c 0,-0.16904 0.1306,-0.22663 0.29021,-0.12798 0.15962,0.0986 0.29022,0.23695 0.29022,0.30734 0,0.0704 -0.1306,0.12798 -0.29022,0.12798 -0.15961,0 -0.29021,-0.1383 -0.29021,-0.30734 z m 163.1448,-44.38526 c 0,-0.39905 0.0659,-0.56229 0.14638,-0.36277 0.0805,0.19952 0.0805,0.52601 0,0.72553 -0.0805,0.19952 -0.14638,0.0363 -0.14638,-0.36276 z m -28.29627,-34.4032 c 0.0884,-0.23038 0.27765,-0.34662 0.42054,-0.25831 0.35989,0.22243 0.32676,0.32873 -0.16074,0.5158 -0.28052,0.10765 -0.36702,0.0219 -0.2598,-0.25749 z m 0.82544,-0.42221 c -0.1814,-0.29351 -0.14478,-0.32323 0.50787,-0.41223 0.19953,-0.0272 0.32688,-0.21648 0.28303,-0.42061 -0.0439,-0.20413 0.0514,-0.29009 0.21171,-0.19102 0.18925,0.11696 0.16729,0.37896 -0.0626,0.7471 -0.39351,0.63012 -0.67109,0.71185 -0.93999,0.27676 z m 76.59218,-61.30722 c -1.76362,-1.79569 -8.74287,-8.94578 -15.50944,-15.88909 -6.76658,-6.94332 -15.89442,-16.24903 -20.2841,-20.67936 l -7.98124,-8.05516 -31.4997,0.0147 c -17.32484,0.008 -31.93676,0.10808 -32.47094,0.22223 -0.92776,0.19826 -1.13062,0.51581 -4.53386,7.09728 l -3.56265,6.88973 h 20.83939 c 14.0536,0 21.10439,0.10076 21.65325,0.30944 0.94653,0.35987 8.9407,8.16633 9.54993,9.32569 0.86675,1.6494 0.22621,3.64565 -1.38832,4.32671 -0.81045,0.34187 -15.1383,0.40364 -93.63059,0.40364 h -92.67372 l -0.847,-0.94776 c -1.00434,-1.12382 -1.15202,-2.94524 -0.33722,-4.15931 0.86297,-1.28586 8.64595,-8.64253 9.47805,-8.95889 0.50789,-0.1931 6.63687,-0.29952 17.2505,-0.29952 h 16.46272 l 0.81074,-1.66871 c 0.44591,-0.9178 2.04026,-3.97498 3.543,-6.79374 1.50274,-2.81876 2.73225,-5.26742 2.73225,-5.44147 0,-0.22665 -9.60096,-0.31645 -33.83273,-0.31645 h -33.83273 l -10.35949,10.52017 c -12.82541,13.02436 -32.77464,33.45557 -34.85397,35.69604 l -1.54868,1.66872 H 268.97131 428.98788 Z M 299.16198,143.55237 c 1.77607,-3.55147 5.80389,-11.35454 8.9507,-17.34015 8.63937,-16.43311 12.63478,-24.10337 20.18123,-38.74327 3.78478,-7.34235 7.13504,-13.76708 7.44503,-14.27716 l 0.56362,-0.92743 -0.95712,-0.16265 c -1.16441,-0.19789 -17.54028,-2.54519 -31.57445,-4.52587 -5.66638,-0.7997 -16.24001,-2.30236 -23.49694,-3.33923 -7.25694,-1.03687 -13.34353,-1.828 -13.52575,-1.75808 -0.34278,0.13154 -4.44602,7.81387 -11.95267,22.37852 -4.38714,8.51206 -8.03904,15.56308 -19.2394,37.1471 -7.69604,14.83092 -14.20536,27.57961 -14.20536,27.82163 0,0.10109 16.78092,0.1838 37.29094,0.1838 h 37.29094 z"
       id="path1" /></g></svg>
